<?xml version="1.0" encoding="utf-8"?>
<!-- Generator: Adobe Illustrator 23.0.3, SVG Export Plug-In . SVG Version: 6.00 Build 0)  -->
<svg version="1.1" id="Layer_1" xmlns="http://www.w3.org/2000/svg" xmlns:xlink="http://www.w3.org/1999/xlink" x="0px" y="0px"
	 viewBox="0 0 92.6 92.2" style="enable-background:new 0 0 92.6 92.2;" xml:space="preserve">
<path d="M46,1C21.2,1,1,21.2,1,46s20.2,45,45,45s45-20.2,45-45S70.8,1,46,1z M46,88C22.8,88,4,69.1,4,46S22.8,4,46,4s42,18.8,42,42
	S69.1,88,46,88z"/>
<path d="M26.2,44.9c0-0.5-0.4-0.9-0.9-0.9h-8.8c-0.5,0-0.9,0.4-0.9,0.9c0,0.5,0.4,0.9,0.9,0.9h8.8C25.8,45.8,26.2,45.4,26.2,44.9z"
	/>
<path d="M66.7,44c-0.5,0-0.9,0.4-0.9,0.9c0,0.5,0.4,0.9,0.9,0.9h8.8c0.5,0,0.9-0.4,0.9-0.9c0-0.5-0.4-0.9-0.9-0.9H66.7z"/>
<path d="M27.6,54.4L20,58.8c-0.4,0.2-0.6,0.8-0.3,1.2c0.2,0.3,0.5,0.5,0.8,0.5c0.2,0,0.3,0,0.5-0.1l7.6-4.4c0.4-0.2,0.6-0.8,0.3-1.2
	C28.6,54.3,28,54.2,27.6,54.4z"/>
<path d="M63.9,35.4c0.2,0,0.3,0,0.5-0.1l7.6-4.4c0.4-0.3,0.6-0.8,0.3-1.2c-0.3-0.4-0.8-0.6-1.2-0.3l-7.6,4.4
	C63,34,62.9,34.5,63.1,35C63.3,35.3,63.6,35.4,63.9,35.4z"/>
<path d="M55.9,27.7c0.1,0.1,0.3,0.1,0.5,0.1c0.3,0,0.6-0.2,0.8-0.5l4.4-7.6c0.3-0.4,0.1-1-0.3-1.2c-0.4-0.2-1-0.1-1.2,0.3l-4.4,7.6
	C55.3,26.9,55.5,27.5,55.9,27.7z"/>
<path d="M46,25.1c0.5,0,0.9-0.4,0.9-0.9v-8.8c0-0.5-0.4-0.9-0.9-0.9s-0.9,0.4-0.9,0.9v8.8C45.1,24.7,45.5,25.1,46,25.1z"/>
<path d="M34.8,27.4c0.2,0.3,0.5,0.5,0.8,0.5c0.2,0,0.3,0,0.5-0.1c0.4-0.3,0.6-0.8,0.3-1.2L32,18.9c-0.3-0.4-0.8-0.6-1.2-0.3
	c-0.4,0.3-0.6,0.8-0.3,1.2L34.8,27.4z"/>
<path d="M72,58.8l-7.6-4.4c-0.4-0.3-1-0.1-1.2,0.3c-0.3,0.4-0.1,1,0.3,1.2l7.6,4.4c0.1,0.1,0.3,0.1,0.5,0.1c0.3,0,0.6-0.2,0.8-0.5
	C72.6,59.6,72.4,59.1,72,58.8z"/>
<path d="M20,30.9l7.6,4.4c0.1,0.1,0.3,0.1,0.5,0.1c0.3,0,0.6-0.2,0.8-0.5c0.3-0.4,0.1-1-0.3-1.2l-7.6-4.4c-0.4-0.2-1-0.1-1.2,0.3
	C19.4,30.1,19.6,30.7,20,30.9z"/>
<path d="M57.4,32.2c-3.7-3.3-8.4-4.8-13.4-4.3c-8,0.9-14.4,7.4-15.1,15.4c-0.5,5.3,1.4,10.4,5.3,14.1c2.3,2.1,3.6,5.3,3.6,8.6v3.5
	c0,3,2,5.5,4.7,6.4v0c0,0.9,0.4,1.8,1.1,2.5c0.7,0.7,1.6,1.1,2.5,1.1c2,0,3.6-1.6,3.6-3.6v0c2.7-0.9,4.7-3.4,4.7-6.4V66
	c0-3.3,1.3-6.4,3.8-8.8c3.3-3.3,5.2-7.6,5.2-12.3C63.1,40.1,61.1,35.4,57.4,32.2z M46,77.7c-0.5,0-0.9-0.2-1.2-0.5
	c-0.3-0.3-0.4-0.6-0.5-0.9c0.1,0,0.1,0,0.2,0h3.1c0.1,0,0.1,0,0.2,0C47.6,77,46.9,77.7,46,77.7z M52.4,69.5c0,2.7-2.2,4.9-4.9,4.9
	h-3.1c-2.7,0-4.9-2.2-4.9-4.9v-3.2H43H49h3.4L52.4,69.5L52.4,69.5z M47.8,60.2c0.1,0.1,0.2,0.2,0.4,0.2v4h-4.3v-4
	c0.1,0,0.3-0.1,0.4-0.2H47.8z M45.8,58.2v-2.4h0.3v2.4H45.8z M47.9,57.1v-2.2c0-0.5-0.3-0.8-0.8-0.9l1.2-7.8l2-1L47.9,57.1z
	 M46.1,54h-0.2l-1.2-7.8l1.3-0.5l1.3,0.5L46.1,54z M44.8,54c-0.4,0.1-0.8,0.4-0.8,0.9v2.2l-2.4-11.9l2,1L44.8,54z M56.7,55.9
	c-2.4,2.3-3.9,5.3-4.2,8.5h-2.6v-5.2c0-0.3-0.2-0.6-0.4-0.7l3-14.9c0,0,0-0.1,0-0.1c0-0.1,0-0.1,0-0.2c0-0.1,0-0.1-0.1-0.2
	c0,0,0-0.1,0-0.1c0,0,0,0,0,0c0-0.1-0.1-0.1-0.1-0.2c0,0-0.1-0.1-0.1-0.1c0,0-0.1-0.1-0.1-0.1c-0.1,0-0.1-0.1-0.2-0.1c0,0,0,0,0,0
	c0,0-0.1,0-0.1,0c-0.1,0-0.1,0-0.2,0c-0.1,0-0.1,0-0.2,0.1c0,0-0.1,0-0.1,0l-3.3,1.7l-1.5-0.6c-0.2-0.1-0.5-0.1-0.7,0l-1.5,0.6
	l-3.3-1.7c0,0-0.1,0-0.1,0c-0.1,0-0.1,0-0.2-0.1c-0.1,0-0.1,0-0.2,0c0,0-0.1,0-0.1,0c0,0,0,0,0,0c-0.1,0-0.1,0-0.2,0.1
	c-0.1,0-0.1,0-0.1,0.1c0,0-0.1,0.1-0.1,0.1c0,0-0.1,0.1-0.1,0.1c0,0,0,0,0,0c0,0,0,0.1,0,0.1c0,0.1,0,0.1-0.1,0.2c0,0.1,0,0.1,0,0.2
	c0,0,0,0.1,0,0.1l3,14.9C42.2,58.7,42,59,42,59.3v5.2h-2.6c-0.3-3.2-1.8-6.2-4-8.4c-3.4-3.3-5.2-7.8-4.7-12.6
	c0.7-7.2,6.3-13,13.5-13.8c0.6-0.1,1.2-0.1,1.8-0.1c3.8,0,7.4,1.4,10.2,3.9c3.2,2.9,5.1,7.1,5.1,11.4C61.3,49.1,59.7,53,56.7,55.9z"
	/>
<path d="M56.5,36.1c-0.3-0.4-0.9-0.4-1.3-0.1c-0.4,0.3-0.4,0.9-0.1,1.3C57,39.4,58,42.2,58,45c0,0.5,0.4,0.9,0.9,0.9
	c0.5,0,0.9-0.4,0.9-0.9C59.8,41.8,58.7,38.6,56.5,36.1z"/>
<path d="M49.8,31.7c-0.5-0.1-1,0.1-1.1,0.6c-0.1,0.5,0.1,1,0.6,1.1c1.2,0.3,2.4,0.9,3.4,1.6c0.2,0.1,0.3,0.2,0.5,0.2
	c0.3,0,0.6-0.1,0.8-0.4c0.3-0.4,0.2-1-0.2-1.3C52.5,32.8,51.2,32.1,49.8,31.7z"/>
</svg>
