<?xml version="1.0" encoding="utf-8"?>
<!-- Generator: Adobe Illustrator 23.0.3, SVG Export Plug-In . SVG Version: 6.00 Build 0)  -->
<svg version="1.1" id="Layer_1" xmlns="http://www.w3.org/2000/svg" xmlns:xlink="http://www.w3.org/1999/xlink" x="0px" y="0px"
	 viewBox="0 0 70 70" style="enable-background:new 0 0 70 70;" xml:space="preserve">
<style type="text/css">
	.st0{fill:#FFFFFF;}
</style>
<path class="st0" d="M34.9,0.2C15.7,0.2,0,15.9,0,35.1S15.7,70,34.9,70s34.9-15.7,34.9-34.9S54.1,0.2,34.9,0.2z M34.9,67.7
	c-18,0-32.6-14.7-32.6-32.6S16.9,2.5,34.9,2.5s32.6,14.6,32.6,32.6S52.8,67.7,34.9,67.7z"/>
<path class="st0" d="M19.5,34.2c0-0.4-0.3-0.7-0.7-0.7H12c-0.4,0-0.7,0.3-0.7,0.7c0,0.4,0.3,0.7,0.7,0.7h6.8
	C19.2,34.9,19.5,34.6,19.5,34.2z"/>
<path class="st0" d="M51,33.5c-0.4,0-0.7,0.3-0.7,0.7c0,0.4,0.3,0.7,0.7,0.7h6.8c0.4,0,0.7-0.3,0.7-0.7c0-0.4-0.3-0.7-0.7-0.7H51z"
	/>
<path class="st0" d="M20.6,41.6L14.7,45c-0.3,0.2-0.5,0.6-0.2,0.9c0.2,0.2,0.4,0.4,0.6,0.4c0.2,0,0.2,0,0.4-0.1l5.9-3.4
	c0.3-0.2,0.5-0.6,0.2-0.9C21.4,41.5,20.9,41.5,20.6,41.6z"/>
<path class="st0" d="M48.8,26.9c0.2,0,0.2,0,0.4-0.1l5.9-3.4c0.3-0.2,0.5-0.6,0.2-0.9c-0.2-0.3-0.6-0.5-0.9-0.2l-5.9,3.4
	c-0.4,0.2-0.5,0.5-0.3,0.9C48.3,26.8,48.5,26.9,48.8,26.9z"/>
<path class="st0" d="M42.6,20.9C42.7,21,42.8,21,43,21c0.2,0,0.5-0.2,0.6-0.4l3.4-5.9c0.2-0.3,0.1-0.8-0.2-0.9
	c-0.3-0.2-0.8-0.1-0.9,0.2l-3.4,5.9C42.1,20.3,42.3,20.8,42.6,20.9z"/>
<path class="st0" d="M34.9,18.9c0.4,0,0.7-0.3,0.7-0.7v-6.8c0-0.4-0.3-0.7-0.7-0.7c-0.4,0-0.7,0.3-0.7,0.7v6.8
	C34.2,18.6,34.5,18.9,34.9,18.9z"/>
<path class="st0" d="M26.2,20.7c0.2,0.2,0.4,0.4,0.6,0.4c0.2,0,0.2,0,0.4-0.1c0.3-0.2,0.5-0.6,0.2-0.9l-3.4-6
	c-0.2-0.3-0.6-0.5-0.9-0.2c-0.3,0.2-0.5,0.6-0.2,0.9L26.2,20.7z"/>
<path class="st0" d="M55.1,45l-5.9-3.4c-0.3-0.2-0.8-0.1-0.9,0.2c-0.2,0.3-0.1,0.8,0.2,0.9l5.9,3.4c0.1,0.1,0.2,0.1,0.4,0.1
	c0.2,0,0.5-0.2,0.6-0.4C55.5,45.6,55.4,45.3,55.1,45z"/>
<path class="st0" d="M14.7,23.4l5.9,3.4c0.1,0.1,0.2,0.1,0.4,0.1c0.2,0,0.5-0.2,0.6-0.4c0.2-0.3,0.1-0.8-0.2-0.9l-5.9-3.4
	c-0.3-0.2-0.8-0.1-0.9,0.2C14.3,22.8,14.4,23.2,14.7,23.4z"/>
<path class="st0" d="M43.7,24.4c-2.9-2.6-6.5-3.7-10.4-3.3c-6.2,0.7-11.2,5.7-11.7,11.9c-0.4,4.1,1.1,8.1,4.1,10.9
	c1.8,1.6,2.8,4.1,2.8,6.7v2.7c0,2.3,1.6,4.3,3.6,5l0,0c0,0.7,0.3,1.4,0.9,1.9c0.5,0.5,1.2,0.9,1.9,0.9c1.6,0,2.8-1.2,2.8-2.8l0,0
	c2.1-0.7,3.6-2.6,3.6-5v-2.7c0-2.6,1-5,2.9-6.8c2.6-2.6,4-5.9,4-9.5C48.2,30.5,46.6,26.9,43.7,24.4z M34.9,59.7
	c-0.4,0-0.7-0.2-0.9-0.4c-0.2-0.2-0.3-0.5-0.4-0.7c0.1,0,0.1,0,0.2,0h2.4c0.1,0,0.1,0,0.2,0C36.1,59.1,35.6,59.7,34.9,59.7z
	 M39.9,53.3c0,2.1-1.7,3.8-3.8,3.8h-2.4c-2.1,0-3.8-1.7-3.8-3.8v-2.5h2.7h4.7h2.6V53.3L39.9,53.3z M36.3,46.1
	c0.1,0.1,0.2,0.2,0.3,0.2v3.1h-3.3v-3.1c0.1,0,0.2-0.1,0.3-0.2H36.3z M34.7,44.6v-1.9H35v1.9H34.7z M36.4,43.7V42
	c0-0.4-0.2-0.6-0.6-0.7l0.9-6l1.6-0.8L36.4,43.7z M35,41.3h-0.2l-0.9-6l1-0.4l1,0.4L35,41.3z M34,41.3c-0.3,0.1-0.6,0.3-0.6,0.7v1.7
	l-1.9-9.2l1.6,0.8L34,41.3z M43.2,42.8c-1.9,1.8-3,4.1-3.3,6.6h-2v-4c0-0.2-0.2-0.5-0.3-0.5l2.3-11.6v-0.1c0-0.1,0-0.1,0-0.2
	s0-0.1-0.1-0.2v-0.1l0,0c0-0.1-0.1-0.1-0.1-0.2l-0.1-0.1l-0.1-0.1c-0.1,0-0.1-0.1-0.2-0.1l0,0h-0.1c-0.1,0-0.1,0-0.2,0
	c-0.1,0-0.1,0-0.2,0.1H39l-2.6,1.3l-1.2-0.5c-0.2-0.1-0.4-0.1-0.5,0l-1.2,0.5L31,32.5h-0.1c-0.1,0-0.1,0-0.2-0.1c-0.1,0-0.1,0-0.2,0
	h-0.1l0,0c-0.1,0-0.1,0-0.2,0.1c-0.1,0-0.1,0-0.1,0.1l-0.1,0.1l-0.1,0.1l0,0v0.1c0,0.1,0,0.1-0.1,0.2c0,0.1,0,0.1,0,0.2v0.1
	l2.3,11.6c-0.5,0.2-0.6,0.5-0.6,0.7v4h-2c-0.2-2.5-1.4-4.8-3.1-6.5c-2.6-2.6-4-6-3.6-9.8c0.5-5.6,4.9-10.1,10.5-10.7
	c0.5-0.1,0.9-0.1,1.4-0.1c2.9,0,5.7,1.1,7.9,3c2.5,2.2,4,5.5,4,8.8C46.8,37.5,45.5,40.5,43.2,42.8z"/>
<path class="st0" d="M43,27.4c-0.2-0.3-0.7-0.3-1-0.1c-0.3,0.2-0.3,0.7-0.1,1c1.5,1.6,2.2,3.8,2.2,6c0,0.4,0.3,0.7,0.7,0.7
	c0.4,0,0.7-0.3,0.7-0.7C45.6,31.8,44.7,29.4,43,27.4z"/>
<path class="st0" d="M37.8,24c-0.4-0.1-0.8,0.1-0.9,0.5c-0.1,0.4,0.1,0.8,0.5,0.9c0.9,0.2,1.9,0.7,2.6,1.2c0.2,0.1,0.2,0.2,0.4,0.2
	c0.2,0,0.5-0.1,0.6-0.3c0.2-0.3,0.2-0.8-0.2-1C39.9,24.9,38.9,24.3,37.8,24z"/>
</svg>
