<?xml version="1.0" encoding="utf-8"?>
<!-- Generator: Adobe Illustrator 23.0.3, SVG Export Plug-In . SVG Version: 6.00 Build 0)  -->
<svg version="1.1" id="Layer_1" xmlns="http://www.w3.org/2000/svg" xmlns:xlink="http://www.w3.org/1999/xlink" x="0px" y="0px"
	 viewBox="0 0 92.6 92.9" style="enable-background:new 0 0 92.6 92.9;" xml:space="preserve">
<g>
	<path d="M46.1,1.6c-24.8,0-45,20.2-45,45s20.2,45,45,45s45-20.2,45-45S70.9,1.6,46.1,1.6z M46.1,88.6c-23.2,0-42-18.8-42-42
		s18.8-42,42-42s42,18.8,42,42S69.3,88.6,46.1,88.6z"/>
	<path d="M60.6,23.4l-29,0c-7.3,0-13.5,5.1-15,12.1c-1.2,0-2.3,0.5-3.2,1.4c-0.9,0.9-1.4,2.1-1.4,3.3c0,1.2,0.5,2.3,1.3,3.2
		c-0.8,0.9-1.3,2-1.3,3.2c0,1.2,0.5,2.3,1.3,3.2c-0.8,0.9-1.3,2-1.3,3.2c0,2.5,2,4.6,4.5,4.7c1.5,7,7.7,12.1,15,12.1l29,0
		c7.3,0,13.5-5.1,15-12.1c2.5-0.1,4.5-2.1,4.5-4.7c0-1.2-0.5-2.3-1.3-3.2c0.8-0.9,1.3-2,1.3-3.2c0-1.2-0.5-2.3-1.3-3.2
		c0.8-0.9,1.3-2,1.3-3.2c0-2.5-2-4.6-4.5-4.7C74.1,28.5,67.9,23.4,60.6,23.4z M31.6,26.4l29,0c5.6,0,10.4,3.8,11.9,9.1H19.7
		C21.2,30.2,26,26.4,31.6,26.4z M20.6,45.4c1.1,0.3,2.3,0.6,4.6,0.6c2.5,0,3.7-0.7,4.9-1.3c1-0.5,1.8-0.9,3.5-0.9
		c1.7,0,2.5,0.4,3.5,0.9c1.1,0.6,2.4,1.3,4.9,1.3c2.5,0,3.7-0.7,4.9-1.3c1-0.5,1.8-0.9,3.5-0.9s2.5,0.4,3.5,0.9
		c1.1,0.6,2.4,1.3,4.9,1.3c2.5,0,3.7-0.7,4.9-1.3c1-0.5,1.8-0.9,3.5-0.9c1.9,0,2.8,0.2,3.8,0.5c1.1,0.3,2.3,0.6,4.6,0.6
		c0.9,0,1.7,0.8,1.7,1.7c0,0.6-0.3,1-0.5,1.2c-0.2,0.2-0.6,0.5-1.2,0.5c0,0,0,0,0,0c-2.3,0-3.5,0.3-4.5,0.6c-1,0.3-1.9,0.5-3.8,0.5
		c-1.7,0-2.5-0.4-3.5-0.9c-1.1-0.6-2.4-1.3-4.9-1.3c-2.5,0-3.7,0.7-4.9,1.3c-1,0.5-1.8,0.9-3.5,0.9s-2.5-0.4-3.5-0.9
		c-1.1-0.6-2.4-1.3-4.9-1.3c-2.5,0-3.8,0.7-4.9,1.3c-1.8,0.9-3,2.8-3,4.9v5.1c0,0.5-0.3,0.8-0.7,0.9c-0.3,0-0.5-0.1-0.6-0.2
		c-0.1-0.1-0.2-0.3-0.2-0.5v-5.5c0-2.1-1.2-4-3.1-4.9c-1-0.5-2.2-1-4.3-1c-2.3,0-3.5,0.3-4.6,0.6c-1,0.3-1.9,0.5-3.8,0.5
		c0,0,0,0,0,0c-0.9,0-1.7-0.8-1.7-1.7c0-0.4,0.2-0.9,0.5-1.2c0.3-0.3,0.7-0.5,1.2-0.5C18.7,44.9,19.6,45.1,20.6,45.4z M15.1,52.9
		c0-0.6,0.3-1,0.5-1.2c0.3-0.3,0.8-0.5,1.2-0.5c2.3,0,3.5-0.3,4.6-0.6c1-0.3,1.9-0.5,3.8-0.5c1.5,0,2.3,0.3,3,0.6
		c0.9,0.4,1.4,1.3,1.4,2.2v1.6H16.8C15.9,54.6,15.1,53.9,15.1,52.9z M60.6,66.7l-29,0c-5.6,0-10.5-3.8-11.9-9.1h9.8v1
		c0,1,0.4,2,1.2,2.7c0.7,0.7,1.6,1,2.6,1c0.1,0,0.1,0,0.2,0c2-0.1,3.5-1.8,3.5-3.9v-0.8h35.5C71,62.9,66.2,66.7,60.6,66.7z
		 M75.4,54.6H37v-1.3c0-0.9,0.5-1.8,1.4-2.2c1-0.5,1.8-0.9,3.5-0.9c1.7,0,2.5,0.4,3.5,0.9c1.1,0.6,2.4,1.3,4.9,1.3s3.8-0.7,4.9-1.3
		c1-0.5,1.8-0.9,3.5-0.9c1.7,0,2.5,0.4,3.5,0.9c1.1,0.6,2.4,1.3,4.9,1.3c2.3,0,3.5-0.3,4.6-0.6c1-0.3,1.9-0.5,3.8-0.5
		c0.9,0,1.7,0.8,1.7,1.7C77.1,53.9,76.3,54.6,75.4,54.6z M77.1,40.2c0,0.4-0.2,0.9-0.5,1.2c-0.2,0.2-0.6,0.5-1.2,0.5
		c-1.9,0-2.8-0.2-3.8-0.5c-1.1-0.3-2.3-0.6-4.6-0.6c-2.5,0-3.7,0.7-4.9,1.3c-1,0.5-1.8,0.9-3.5,0.9c-1.7,0-2.5-0.4-3.5-0.9
		c-1.1-0.6-2.4-1.3-4.9-1.3c-2.5,0-3.7,0.7-4.9,1.3c-1,0.5-1.8,0.9-3.5,0.9s-2.5-0.4-3.5-0.9c-1.1-0.6-2.4-1.3-4.9-1.3
		c-2.5,0-3.7,0.7-4.9,1.3c-1,0.5-1.8,0.9-3.5,0.9c-1.9,0-2.8-0.2-3.8-0.5c-1.1-0.3-2.3-0.6-4.6-0.6c-0.9,0-1.7-0.8-1.7-1.7
		c0-0.4,0.2-0.9,0.5-1.2c0.3-0.3,0.7-0.5,1.2-0.5h58.6C76.3,38.5,77.1,39.3,77.1,40.2z"/>
</g>
</svg>
