<?xml version="1.0" encoding="utf-8"?>
<!-- Generator: Adobe Illustrator 23.0.3, SVG Export Plug-In . SVG Version: 6.00 Build 0)  -->
<svg version="1.1" id="Layer_1" xmlns="http://www.w3.org/2000/svg" xmlns:xlink="http://www.w3.org/1999/xlink" x="0px" y="0px"
	 viewBox="0 0 70 70" style="enable-background:new 0 0 70 70;" xml:space="preserve">
<style type="text/css">
	.st0{fill:#FFFFFF;}
</style>
<g>
	<path class="st0" d="M35.2,0C16.2,0,0.7,15.5,0.7,34.5S16.2,69,35.2,69s34.5-15.5,34.5-34.5S54.2,0,35.2,0z M35.2,66.7
		C17.4,66.7,3,52.3,3,34.5S17.4,2.3,35.2,2.3s32.2,14.4,32.2,32.2S52.9,66.7,35.2,66.7z"/>
	<path class="st0" d="M46.3,16.8H24.1c-5.6,0-10.3,3.9-11.5,9.3c-0.9,0-1.8,0.4-2.5,1.1s-1.1,1.6-1.1,2.5c0,0.9,0.4,1.8,1,2.5
		c-0.6,0.7-1,1.5-1,2.5s0.4,1.8,1,2.5c-0.6,0.7-1,1.5-1,2.5c0,1.9,1.5,3.5,3.4,3.6c1.1,5.4,5.9,9.3,11.5,9.3h22.2
		c5.6,0,10.3-3.9,11.5-9.3c1.9-0.1,3.4-1.6,3.4-3.6c0-0.9-0.4-1.8-1-2.5c0.6-0.7,1-1.5,1-2.5s-0.4-1.8-1-2.5c0.6-0.7,1-1.5,1-2.5
		c0-1.9-1.5-3.5-3.4-3.6C56.6,20.7,51.9,16.8,46.3,16.8z M24.1,19h22.2c4.3,0,8,2.9,9.1,7H14.9C16.1,22,19.8,19,24.1,19z M15.6,33.6
		c0.8,0.2,1.8,0.5,3.5,0.5c1.9,0,2.8-0.5,3.8-1c0.8-0.4,1.4-0.7,2.7-0.7s1.9,0.3,2.7,0.7c0.8,0.5,1.8,1,3.8,1c1.9,0,2.8-0.5,3.8-1
		c0.8-0.4,1.4-0.7,2.7-0.7c1.3,0,1.9,0.3,2.7,0.7c0.8,0.5,1.8,1,3.8,1c1.9,0,2.8-0.5,3.8-1c0.8-0.4,1.4-0.7,2.7-0.7
		c1.5,0,2.1,0.2,2.9,0.4c0.8,0.2,1.8,0.5,3.5,0.5c0.7,0,1.3,0.6,1.3,1.3c0,0.5-0.2,0.8-0.4,0.9c-0.2,0.2-0.5,0.4-0.9,0.4l0,0
		c-1.8,0-2.7,0.2-3.4,0.5c-0.8,0.2-1.5,0.4-2.9,0.4c-1.3,0-1.9-0.3-2.7-0.7c-0.8-0.5-1.8-1-3.8-1c-1.9,0-2.8,0.5-3.8,1
		c-0.8,0.4-1.4,0.7-2.7,0.7s-1.9-0.3-2.7-0.7c-0.8-0.5-1.8-1-3.8-1c-1.9,0-2.9,0.5-3.8,1c-1.4,0.7-2.3,2.1-2.3,3.8v3.9
		c0,0.4-0.2,0.6-0.5,0.7c-0.2,0-0.4-0.1-0.5-0.2c-0.1-0.1-0.2-0.2-0.2-0.4v-4.2c0-1.6-0.9-3.1-2.4-3.8c-0.8-0.4-1.7-0.8-3.3-0.8
		c-1.8,0-2.7,0.2-3.5,0.5c-0.8,0.2-1.5,0.4-2.9,0.4l0,0c-0.7,0-1.3-0.6-1.3-1.3c0-0.3,0.2-0.7,0.4-0.9c0.2-0.2,0.5-0.4,0.9-0.4
		C14.2,33.2,14.9,33.4,15.6,33.6z M11.4,39.4c0-0.5,0.2-0.8,0.4-0.9c0.2-0.2,0.6-0.4,0.9-0.4c1.8,0,2.7-0.2,3.5-0.5
		c0.8-0.2,1.5-0.4,2.9-0.4c1.1,0,1.8,0.2,2.3,0.5c0.7,0.3,1.1,1,1.1,1.7v1.2h-9.8C12,40.7,11.4,40.1,11.4,39.4z M46.3,49.9H24.1
		c-4.3,0-8-2.9-9.1-7h7.5v0.8c0,0.8,0.3,1.5,0.9,2.1c0.5,0.5,1.2,0.8,2,0.8c0.1,0,0.1,0,0.2,0c1.5-0.1,2.7-1.4,2.7-3V43h27.2
		C54.3,47,50.6,49.9,46.3,49.9z M57.6,40.7H28.2v-1c0-0.7,0.4-1.4,1.1-1.7c0.8-0.4,1.4-0.7,2.7-0.7c1.3,0,1.9,0.3,2.7,0.7
		c0.8,0.5,1.8,1,3.8,1c1.9,0,2.9-0.5,3.8-1c0.8-0.4,1.4-0.7,2.7-0.7c1.3,0,1.9,0.3,2.7,0.7c0.8,0.5,1.8,1,3.8,1
		c1.8,0,2.7-0.2,3.5-0.5c0.8-0.2,1.5-0.4,2.9-0.4c0.7,0,1.3,0.6,1.3,1.3C58.9,40.1,58.3,40.7,57.6,40.7z M58.9,29.6
		c0,0.3-0.2,0.7-0.4,0.9c-0.2,0.2-0.5,0.4-0.9,0.4c-1.5,0-2.1-0.2-2.9-0.4c-0.8-0.2-1.8-0.5-3.5-0.5c-1.9,0-2.8,0.5-3.8,1
		c-0.8,0.4-1.4,0.7-2.7,0.7c-1.3,0-1.9-0.3-2.7-0.7c-0.8-0.5-1.8-1-3.8-1s-2.8,0.5-3.8,1c-0.8,0.4-1.4,0.7-2.7,0.7s-1.9-0.3-2.7-0.7
		c-0.8-0.5-1.8-1-3.8-1s-2.8,0.5-3.8,1c-0.8,0.4-1.4,0.7-2.7,0.7c-1.5,0-2.1-0.2-2.9-0.4c-0.8-0.2-1.8-0.5-3.5-0.5
		c-0.7,0-1.3-0.6-1.3-1.3c0-0.3,0.2-0.7,0.4-0.9c0.2-0.2,0.5-0.4,0.9-0.4h44.9C58.3,28.3,58.9,28.9,58.9,29.6z"/>
</g>
</svg>
