<?xml version="1.0" encoding="utf-8"?>
<!-- Generator: Adobe Illustrator 23.0.3, SVG Export Plug-In . SVG Version: 6.00 Build 0)  -->
<svg version="1.1" id="Layer_1" xmlns="http://www.w3.org/2000/svg" xmlns:xlink="http://www.w3.org/1999/xlink" x="0px" y="0px"
	 viewBox="0 0 70 70" style="enable-background:new 0 0 70 70;" xml:space="preserve">
<style type="text/css">
	.st0{fill:#FFFFFF;}
</style>
<g>
	<path class="st0" d="M64.1,16C53.9,0.2,32.8-4.6,16.8,5.5c-7.7,4.9-13,12.5-15,21.4S1.4,45,6.3,52.7c3,4.7,6.9,8.5,11.6,11.2
		c0.4,0.2,0.9,0.1,1.1-0.3c0.2-0.4,0.1-0.9-0.3-1.1c-4.5-2.6-8.3-6.2-11.1-10.7c-1.1-1.7-2.1-3.6-2.8-5.4h26.9v-1.6H24
		c0.8-0.6,1.3-1.6,1.3-2.7c0-1.9-1.6-3.5-3.5-3.5s-3.5,1.6-3.5,3.5c0,1.1,0.6,2.1,1.3,2.7H4.3C4,44.2,3.9,43.6,3.7,43h14.5v-0.8
		c0-2.1,1.7-3.6,3.6-3.6s3.6,1.7,3.6,3.6V43h7.1V25c0-1.6-0.5-2.8-1.5-3.9c-1.8-1.8-4.7-1.7-4.8-1.7h-20c2.6-5.1,6.6-9.4,11.5-12.6
		C32.9-2.8,53,1.7,62.6,16.9c6.9,10.9,6.6,24.4,0.2,34.7l-3-2.9H61c1.3,0,2.4-1.1,2.4-2.5V27c0-1.4-1-2.5-2.3-2.5v-1.3h-1.6v1.3
		h-3.9c-0.2-2.1-1.9-3.6-4-3.6s-3.8,1.6-4,3.6h-3.2v-1.3h-1.6v1.3H42c-1.3,0-2.4,1.1-2.4,2.5v19.1c0,1.4,1,2.5,2.4,2.5h15.6l1.7,1.6
		H44.2v1.6h16.7l1.1,1.1c-0.4,0.6-0.8,1.1-1.2,1.7H48.7v1.6h10.8c-2,2.1-4.2,4.1-6.8,5.8c-7.9,5.1-17.6,6.4-26.6,3.8
		c-0.4-0.2-0.9,0.1-0.9,0.6c-0.2,0.4,0.2,0.9,0.6,0.9c3.2,0.9,6.4,1.3,9.6,1.3c6.4,0,12.8-1.8,18.3-5.3C69.4,53.1,74.2,32,64.1,16z
		 M21.8,40.2c1,0,1.9,0.9,1.9,1.9S22.8,44,21.8,44s-1.9-0.9-1.9-1.9C19.9,41.1,20.8,40.2,21.8,40.2z M31,41.4h-4
		c-0.4-2.5-2.5-4.4-5.2-4.4s-4.8,1.9-5.2,4.4H3.3c-0.8-3.6-0.9-7.2-0.6-10.8H31V41.4L31,41.4z M3,29c0.1-0.4,0.2-0.8,0.2-1.1H31V29
		H3z M26.3,20.9c0,0,2.4,0,3.7,1.3c0.7,0.6,1,1.6,1,2.7v1.3H3.6c0.2-0.9,0.6-1.9,0.9-2.8h3.9v2H10v-3.6H5.1c0.2-0.3,0.2-0.6,0.4-0.9
		H26.3z M42,26.1h7.2l-0.1-0.9c0-0.1,0-0.2,0-0.2c0-1.3,1.1-2.4,2.4-2.4c1.3,0,2.4,1.1,2.4,2.4c0,0.1,0,0.2,0,0.2l-0.1,0.9H61
		c0.4,0,0.8,0.4,0.8,0.9v12.2H41.4V27C41.2,26.5,41.6,26.1,42,26.1z M41.2,46.1v-5.4h20.5v5.4c0,0.6-0.3,0.9-0.8,0.9H42
		C41.6,47.1,41.2,46.7,41.2,46.1z"/>
	<path class="st0" d="M23.3,64.8c-0.6-0.2-1.2-0.5-1.8-0.8c-0.4-0.2-0.9,0-1,0.4c-0.2,0.4,0,0.9,0.4,1c0.6,0.3,1.3,0.6,1.9,0.8
		c0.1,0,0.2,0.1,0.3,0.1c0.3,0,0.6-0.2,0.7-0.5C23.9,65.4,23.7,64.9,23.3,64.8z"/>
	<path class="st0" d="M44.8,38.5h13.3c1.4,0,2.5-1.1,2.5-2.5v-4.8c0-1.4-1.1-2.5-2.5-2.5H44.8c-1.4,0-2.5,1.1-2.5,2.5V36
		C42.3,37.4,43.4,38.5,44.8,38.5z M43.8,31.1c0-0.6,0.4-0.9,0.9-0.9H58c0.6,0,0.9,0.4,0.9,0.9V36c0,0.6-0.4,0.9-0.9,0.9H44.8
		c-0.6,0-0.9-0.4-0.9-0.9L43.8,31.1L43.8,31.1z"/>
	<rect x="48.1" y="32.3" transform="matrix(0.5693 -0.8222 0.8222 0.5693 -5.5311 55.5428)" class="st0" width="4.3" height="1.6"/>
	<rect x="51.1" y="33.5" transform="matrix(0.5696 -0.8219 0.8219 0.5696 -5.3042 58.5077)" class="st0" width="4.3" height="1.6"/>
	<path class="st0" d="M44.9,41.5c-1.4,0-2.6,1.2-2.6,2.6c0,1.4,1.2,2.6,2.6,2.6s2.6-1.2,2.6-2.6C47.5,42.6,46.4,41.5,44.9,41.5z
		 M44.9,45.2c-0.6,0-1-0.5-1-1s0.5-1,1-1s1,0.5,1,1S45.5,45.2,44.9,45.2z"/>
	<path class="st0" d="M58,41.5c-1.4,0-2.6,1.2-2.6,2.6c0,1.4,1.2,2.6,2.6,2.6c1.4,0,2.6-1.2,2.6-2.6C60.6,42.6,59.5,41.5,58,41.5z
		 M58,45.2c-0.6,0-1-0.5-1-1s0.5-1,1-1c0.6,0,1,0.5,1,1S58.6,45.2,58,45.2z"/>
	<polygon class="st0" points="16.3,25.3 17.9,25.3 17.9,21.9 11.2,21.9 11.2,23.5 16.3,23.5 	"/>
	<polygon class="st0" points="23.9,25.3 25.5,25.3 25.5,21.9 19,21.9 19,23.5 23.9,23.5 	"/>
	<polygon class="st0" points="8.5,36.1 10,36.1 10,31.4 3.4,31.4 3.4,32.9 8.5,32.9 	"/>
	<polygon class="st0" points="16.3,36.1 17.9,36.1 17.9,31.4 11.2,31.4 11.2,32.9 16.3,32.9 	"/>
	<polygon class="st0" points="23.9,36.1 25.5,36.1 25.5,31.4 19,31.4 19,32.9 23.9,32.9 	"/>
	<path class="st0" d="M28.8,25.3h1.6c0-2.5-2.6-3.4-4-3.6l-0.2,1.6C26.4,23.5,28.8,23.7,28.8,25.3z"/>
	<path class="st0" d="M28,33.6c0.6,0.6,0.9,1.4,0.9,2.5h1.6c0-1.6-0.5-2.8-1.3-3.7c-1.2-1.2-2.8-1.1-2.8-1.1l0.1,1.6
		C26.4,32.9,27.3,32.9,28,33.6z"/>
	<rect x="3.4" y="39.3" class="st0" width="12.6" height="1.6"/>
	<rect x="28" y="39.3" class="st0" width="1.7" height="1.6"/>
	<path class="st0" d="M39,20.2l5.4-4.3h11.1l-0.3-1c-1.3-3.3-4.9-4.2-5.1-4.3h-5.7L38,6.4h-6.5l4.3,4.3h-6.2l-2.3-4.3H22l3.2,9.6
		h10.9l-3.9,4.3L39,20.2L39,20.2z M35.4,8.1h2.1l4.1,2.7h-3.5L35.4,8.1z M24.2,8.1h2.2l2.3,4.3h21.2c0.4,0.1,2.1,0.6,3.2,2.1H26.4
		L24.2,8.1z M41.9,16l-3.5,2.7h-2.6l2.5-2.7H41.9z"/>
	<path class="st0" d="M24.7,59.9c1.4,0,2.6-1.2,2.6-2.6c0-1.4-1.2-2.6-2.6-2.6s-2.6,1.2-2.6,2.6S23.3,59.9,24.7,59.9z M24.7,56.1
		c0.6,0,1,0.5,1,1s-0.5,1-1,1c-0.6,0-1-0.5-1-1S24.2,56.1,24.7,56.1z"/>
	<path class="st0" d="M40.4,59.9c1.4,0,2.6-1.2,2.6-2.6c0-1.4-1.2-2.6-2.6-2.6s-2.6,1.2-2.6,2.6C37.8,58.7,38.9,59.9,40.4,59.9z
		 M40.4,56.1c0.6,0,1,0.5,1,1s-0.5,1-1,1s-1-0.5-1-1S39.8,56.1,40.4,56.1z"/>
	<path class="st0" d="M37.7,55.6h-10v3.6h10C37.7,59.2,37.7,55.6,37.7,55.6z M36.1,57.6h-6.8v-0.4h6.8
		C36.1,57.2,36.1,57.6,36.1,57.6z"/>
	<path class="st0" d="M27.1,62.5v-0.9h10.7v0.9c0,1.3,1,2.3,2.3,2.3s2.3-1,2.3-2.3v-0.9c1.3-0.1,2.4-1.3,2.4-2.6v-3.4
		c0-1.4-1.2-2.7-2.7-2.7H42l-3.2-5.1H26L22.7,53c-1.4,0.1-2.6,1.2-2.6,2.6V59c0,1.3,1,2.4,2.4,2.6v0.9c0,1.3,1,2.3,2.3,2.3
		C26.1,64.8,27.1,63.7,27.1,62.5z M40.2,63.2c-0.4,0-0.7-0.3-0.7-0.7v-0.9H41v0.9C40.9,62.9,40.6,63.2,40.2,63.2z M26.9,49.3h11.2
		l2.2,3.6h-8.1c-0.3-1.4-1.5-2.4-3-2.4s-2.8,1-3,2.4h-1.6L26.9,49.3z M30.5,52.8h-2.8c0.2-0.6,0.8-0.9,1.3-0.9S30.3,52.4,30.5,52.8z
		 M21.6,58.9v-3.4c0-0.6,0.5-1.1,1.1-1.1h19.5c0.6,0,1.1,0.5,1.1,1.1v3.4c0,0.6-0.5,1.1-1.1,1.1H22.8C22.2,60,21.6,59.5,21.6,58.9z
		 M24.7,63.2c-0.4,0-0.7-0.3-0.7-0.7v-0.9h1.5v0.9C25.5,62.9,25.1,63.2,24.7,63.2z"/>
</g>
</svg>
