<?xml version="1.0" encoding="utf-8"?>
<!-- Generator: Adobe Illustrator 23.0.3, SVG Export Plug-In . SVG Version: 6.00 Build 0)  -->
<svg version="1.1" id="Layer_1" xmlns="http://www.w3.org/2000/svg" xmlns:xlink="http://www.w3.org/1999/xlink" x="0px" y="0px"
	 viewBox="0 0 89.2 89.8" style="enable-background:new 0 0 89.2 89.8;" xml:space="preserve">
<g>
	<path d="M81.2,21.9C68.4,1.8,41.6-4.2,21.4,8.6C11.7,14.8,4.9,24.4,2.4,35.7C-0.1,47,1.9,58.6,8.1,68.3c3.8,5.9,8.7,10.7,14.7,14.2
		c0.5,0.3,1.1,0.1,1.4-0.4c0.3-0.5,0.1-1.1-0.4-1.4c-5.7-3.3-10.5-7.9-14-13.6c-1.4-2.2-2.6-4.5-3.5-6.9h34.1v-2h-9.9
		c1-0.8,1.7-2,1.7-3.4c0-2.4-2-4.4-4.4-4.4s-4.4,2-4.4,4.4c0,1.4,0.7,2.6,1.7,3.4H5.5C5.2,57.6,5,56.8,4.8,56h18.3v-1
		c0-2.6,2.1-4.6,4.6-4.6s4.6,2.1,4.6,4.6v1h9V33.2c0-2-0.6-3.6-1.9-4.9c-2.3-2.3-6-2.2-6.1-2.2H8c3.3-6.4,8.3-11.9,14.6-15.9
		C41.8-2,67.3,3.8,79.5,23c8.8,13.8,8.3,30.9,0.2,44l-3.8-3.7h1.5c1.6,0,3-1.4,3-3.2V35.8c0-1.8-1.3-3.2-2.9-3.2V31h-2v1.6h-5
		c-0.3-2.6-2.4-4.6-5.1-4.6s-4.8,2-5.1,4.6h-4V31h-2v1.6h-1c-1.6,0-3,1.4-3,3.2V60c0,1.8,1.3,3.2,3,3.2h19.8l2.1,2H56.1v2h21.1
		l1.4,1.4c-0.5,0.7-1,1.4-1.5,2.1H61.7v2h13.7c-2.5,2.7-5.3,5.2-8.6,7.3c-10,6.4-22.3,8.1-33.7,4.8c-0.5-0.2-1.1,0.1-1.2,0.7
		c-0.2,0.5,0.2,1.1,0.7,1.2c4,1.2,8.1,1.7,12.1,1.7c8.1,0,16.2-2.3,23.2-6.7C88,68.9,94,42.1,81.2,21.9z M27.7,52.5
		c1.3,0,2.4,1.1,2.4,2.4s-1.1,2.4-2.4,2.4s-2.4-1.1-2.4-2.4S26.4,52.5,27.7,52.5z M39.4,54h-5.1c-0.5-3.2-3.2-5.6-6.6-5.6
		s-6.1,2.4-6.6,5.6H4.3c-1-4.5-1.2-9.1-0.7-13.7h35.7V54z M3.9,38.3c0.1-0.5,0.2-1,0.3-1.4h35.2v1.4H3.9z M33.4,28.1
		c0,0,3,0,4.7,1.7c0.9,0.8,1.3,2,1.3,3.4v1.7H4.6c0.3-1.2,0.7-2.4,1.1-3.6h5v2.5h2v-4.5H6.5c0.2-0.4,0.3-0.8,0.5-1.1
		C7,28.1,33.4,28.1,33.4,28.1z M53.3,34.6h9.1l-0.1-1.1c0-0.1,0-0.2,0-0.3c0-1.7,1.4-3.1,3.1-3.1c1.7,0,3.1,1.4,3.1,3.1
		c0,0.1,0,0.2,0,0.3l-0.1,1.1h9.1c0.5,0,1,0.5,1,1.2v15.4h-26V35.8C52.3,35.2,52.8,34.6,53.3,34.6z M52.3,60v-6.8h26V60
		c0,0.7-0.4,1.2-1,1.2H53.3C52.8,61.2,52.3,60.7,52.3,60z"/>
	<path d="M29.6,83.6c-0.8-0.3-1.5-0.6-2.3-1c-0.5-0.2-1.1,0-1.3,0.5c-0.2,0.5,0,1.1,0.5,1.3c0.8,0.4,1.6,0.7,2.4,1
		c0.1,0,0.2,0.1,0.4,0.1c0.4,0,0.8-0.2,0.9-0.6C30.4,84.4,30.1,83.8,29.6,83.6z"/>
	<path d="M56.8,50.3h16.9c1.8,0,3.2-1.4,3.2-3.2V41c0-1.8-1.4-3.2-3.2-3.2H56.8c-1.8,0-3.2,1.4-3.2,3.2v6.2
		C53.6,48.9,55,50.3,56.8,50.3z M55.6,41c0-0.7,0.5-1.2,1.2-1.2h16.9c0.7,0,1.2,0.5,1.2,1.2v6.2c0,0.7-0.5,1.2-1.2,1.2H56.8
		c-0.7,0-1.2-0.5-1.2-1.2V41z"/>
	<rect x="61" y="42.4" transform="matrix(0.5693 -0.8222 0.8222 0.5693 -8.2061 71.1403)" width="5.5" height="2"/>
	<rect x="64.7" y="44" transform="matrix(0.5696 -0.8219 0.8219 0.5696 -7.9548 74.7715)" width="5.5" height="2"/>
	<path d="M56.9,54.1c-1.8,0-3.3,1.5-3.3,3.3s1.5,3.3,3.3,3.3s3.3-1.5,3.3-3.3S58.8,54.1,56.9,54.1z M56.9,58.8
		c-0.7,0-1.3-0.6-1.3-1.3s0.6-1.3,1.3-1.3c0.7,0,1.3,0.6,1.3,1.3S57.7,58.8,56.9,58.8z"/>
	<path d="M73.5,54.1c-1.8,0-3.3,1.5-3.3,3.3s1.5,3.3,3.3,3.3s3.3-1.5,3.3-3.3S75.4,54.1,73.5,54.1z M73.5,58.8
		c-0.7,0-1.3-0.6-1.3-1.3s0.6-1.3,1.3-1.3c0.7,0,1.3,0.6,1.3,1.3S74.3,58.8,73.5,58.8z"/>
	<polygon points="20.7,33.7 22.7,33.7 22.7,29.3 14.3,29.3 14.3,31.3 20.7,31.3 	"/>
	<polygon points="30.4,33.7 32.4,33.7 32.4,29.3 24.1,29.3 24.1,31.3 30.4,31.3 	"/>
	<polygon points="10.8,47.3 12.8,47.3 12.8,41.3 4.4,41.3 4.4,43.3 10.8,43.3 	"/>
	<polygon points="20.7,47.3 22.7,47.3 22.7,41.3 14.3,41.3 14.3,43.3 20.7,43.3 	"/>
	<polygon points="30.4,47.3 32.4,47.3 32.4,41.3 24.1,41.3 24.1,43.3 30.4,43.3 	"/>
	<path d="M36.6,33.7h2c0-3.2-3.3-4.3-5.1-4.5l-0.2,2C33.5,31.3,36.6,31.6,36.6,33.7z"/>
	<path d="M35.6,44.1c0.7,0.7,1.1,1.8,1.1,3.2h2c0-2-0.6-3.6-1.7-4.7c-1.5-1.5-3.5-1.4-3.5-1.4l0.1,2C33.5,43.3,34.7,43.2,35.6,44.1z
		"/>
	<rect x="4.4" y="51.4" width="15.9" height="2"/>
	<rect x="35.5" y="51.4" width="2.1" height="2"/>
	<path d="M49.5,27.2l6.9-5.4h14L70,20.5c-1.6-4.2-6.2-5.3-6.4-5.4l-7.2,0l-8.2-5.4H40l5.5,5.4l-7.9,0l-2.9-5.4h-6.8L32,21.9h13.8
		l-5,5.4L49.5,27.2L49.5,27.2z M44.9,11.8h2.7l5.2,3.4l-4.4,0L44.9,11.8z M30.7,11.8h2.8l2.9,5.4h26.9c0.5,0.1,2.7,0.8,4.1,2.7H33.5
		L30.7,11.8z M53.2,21.9l-4.4,3.4h-3.3l3.2-3.4H53.2z"/>
	<path d="M31.4,77.4c1.8,0,3.3-1.5,3.3-3.3s-1.5-3.3-3.3-3.3c-1.8,0-3.3,1.5-3.3,3.3S29.6,77.4,31.4,77.4z M31.4,72.7
		c0.7,0,1.3,0.6,1.3,1.3s-0.6,1.3-1.3,1.3c-0.7,0-1.3-0.6-1.3-1.3S30.7,72.7,31.4,72.7z"/>
	<path d="M51.2,77.4c1.8,0,3.3-1.5,3.3-3.3s-1.5-3.3-3.3-3.3s-3.3,1.5-3.3,3.3S49.4,77.4,51.2,77.4z M51.2,72.7
		c0.7,0,1.3,0.6,1.3,1.3s-0.6,1.3-1.3,1.3c-0.7,0-1.3-0.6-1.3-1.3S50.5,72.7,51.2,72.7z"/>
	<path d="M47.8,72H35.2v4.5h12.6C47.8,76.5,47.8,72,47.8,72z M45.8,74.5h-8.6V74h8.6C45.8,74,45.8,74.5,45.8,74.5z"/>
	<path d="M34.4,80.7v-1.1H48v1.1c0,1.6,1.3,2.9,2.9,2.9c1.6,0,2.9-1.3,2.9-2.9v-1.2c1.7-0.1,3.1-1.6,3.1-3.3v-4.3
		c0-1.8-1.5-3.4-3.4-3.4h-0.2l-4-6.5H33l-4.2,6.6c-1.8,0.1-3.3,1.5-3.3,3.3v4.3c0,1.7,1.3,3.1,3,3.3v1.2c0,1.6,1.3,2.9,2.9,2.9
		C33.1,83.6,34.4,82.3,34.4,80.7z M51,81.6c-0.5,0-0.9-0.4-0.9-0.9v-1.1h1.9v1.1C51.9,81.2,51.5,81.6,51,81.6z M34.1,64h14.2
		l2.8,4.5H40.8c-0.4-1.8-1.9-3.1-3.8-3.1s-3.5,1.3-3.8,3.1h-2L34.1,64z M38.7,68.5h-3.5c0.3-0.7,1-1.1,1.7-1.1S38.4,67.9,38.7,68.5z
		 M27.5,76.2v-4.3c0-0.7,0.6-1.4,1.4-1.4h24.7c0.8,0,1.4,0.6,1.4,1.4v4.3c0,0.7-0.6,1.4-1.4,1.4H28.9C28.2,77.6,27.5,76.9,27.5,76.2
		z M31.4,81.6c-0.5,0-0.9-0.4-0.9-0.9v-1.1h1.9v1.1C32.4,81.2,31.9,81.6,31.4,81.6z"/>
</g>
</svg>
