<?xml version="1.0" encoding="utf-8"?>
<!-- Generator: Adobe Illustrator 23.0.3, SVG Export Plug-In . SVG Version: 6.00 Build 0)  -->
<svg version="1.1" id="Layer_1" xmlns="http://www.w3.org/2000/svg" xmlns:xlink="http://www.w3.org/1999/xlink" x="0px" y="0px"
	 viewBox="0 0 70 70" style="enable-background:new 0 0 70 70;" xml:space="preserve">
<style type="text/css">
	.st0{fill:#FFFFFF;}
</style>
<g>
	<path class="st0" d="M59.6,59.2C53.6,65.8,45,70,35.2,70c-10.4,0-19.5-4.8-25.5-12.3l2.9-1.8C18,62.4,26,66.5,35.2,66.5
		c8,0,15.2-3.2,20.4-8.3L59.6,59.2z"/>
	<path class="st0" d="M30.1,4.8v3.4c-13.9,2.5-24.2,14.4-24.2,29c0,2.5,0.3,4.8,0.9,7.1l-2.6,2.9c-1-3.2-1.6-6.6-1.6-10.1
		C2.4,20.9,14.5,7.3,30.1,4.8z"/>
	<path class="st0" d="M68,37.2c0,4.2-0.7,8.2-2.2,11.8l-2.9-1.8c1.2-3.1,1.8-6.6,1.8-10.1c0-13.4-9-24.8-21.3-28.3l-1.2-3.8
		C56.9,8.3,68,21.4,68,37.2z"/>
	<path class="st0" d="M59,37.2c0,2.5-0.4,5-1.2,7.1l-2.9-1.8c0.4-1.8,0.7-3.5,0.7-5.4c0-6.9-3.4-12.8-8.6-16.6l-1.5-4.8
		C53.6,19.7,59,27.9,59,37.2z"/>
	<path class="st0" d="M30.1,14v3.5c-8.2,2-14.3,9.2-15.2,17.6l-3.4,3.8c0-0.6,0-1.2,0-1.8C11.6,25.8,19.4,16.3,30.1,14z"/>
	<path class="st0" d="M48.6,56.7c-3.8,2.6-8.3,4.1-13.3,4.1c-7,0-13.1-2.9-17.5-7.7l2.9-1.8c3.6,3.8,8.8,6.1,14.6,6.1
		c3.1,0,5.8-0.6,8.5-1.9L48.6,56.7z"/>
	<path class="st0" d="M67.9,53.5L44.5,40.1c0.3-0.9,0.4-1.9,0.4-2.9c0-3.8-2.2-7.1-5.4-8.8l5-5c0.1-0.1,0.3-0.4,0.1-0.7l-7-22.2
		C37.5,0.1,37.2,0,36.9,0h-3.2C33.3,0,33,0.3,33,0.7v26.8c-4.5,1-7.6,5-7.6,9.6c0,0.1,0,0.4,0,0.6L18.7,36c-0.3,0-0.6,0-0.7,0.1
		L2.2,53.5c-0.1,0.3-0.3,0.6-0.1,0.9l1.6,2.8c0.1,0.1,0.3,0.3,0.4,0.3c0.1,0,0.4,0,0.6-0.1l23.3-13.4c1.9,2,4.4,3.2,7.1,3.2
		c1.9,0,3.8-0.6,5.4-1.6l1.8,6.7c0,0.3,0.3,0.4,0.6,0.6l22.9,4.8H66c0.3,0,0.4-0.1,0.6-0.4l1.6-2.8C68.4,54.1,68.3,53.7,67.9,53.5z
		 M38.7,37.2c0,1.9-1.6,3.5-3.5,3.5s-3.5-1.6-3.5-3.5s1.6-3.5,3.5-3.5S38.7,35.3,38.7,37.2z"/>
</g>
</svg>
