<?xml version="1.0" encoding="utf-8"?>
<!-- Generator: Adobe Illustrator 23.0.3, SVG Export Plug-In . SVG Version: 6.00 Build 0)  -->
<svg version="1.1" id="Layer_1" xmlns="http://www.w3.org/2000/svg" xmlns:xlink="http://www.w3.org/1999/xlink" x="0px" y="0px"
	 viewBox="0 0 50 50.4" style="enable-background:new 0 0 50 50.4;" xml:space="preserve">
<g>
	<path d="M41.7,41.6C37.6,46.1,31.7,49,25,49c-7.1,0-13.4-3.3-17.5-8.4l2-1.2c3.7,4.4,9.2,7.2,15.5,7.2c5.5,0,10.4-2.2,14-5.7
		L41.7,41.6z"/>
	<path d="M21.5,4.3v2.3C12,8.3,4.9,16.5,4.9,26.5c0,1.7,0.2,3.3,0.6,4.9l-1.8,2c-0.7-2.2-1.1-4.5-1.1-6.9C2.5,15.3,10.8,6,21.5,4.3z
		"/>
	<path d="M47.5,26.5c0,2.9-0.5,5.6-1.5,8.1l-2-1.2c0.8-2.1,1.2-4.5,1.2-6.9c0-9.2-6.2-17-14.6-19.4l-0.8-2.6
		C39.9,6.7,47.5,15.7,47.5,26.5z"/>
	<path d="M41.3,26.5c0,1.7-0.3,3.4-0.8,4.9l-2-1.2c0.3-1.2,0.5-2.4,0.5-3.7c0-4.7-2.3-8.8-5.9-11.4l-1-3.3
		C37.6,14.5,41.3,20.1,41.3,26.5z"/>
	<path d="M21.5,10.6V13c-5.6,1.4-9.8,6.3-10.4,12.1l-2.3,2.6c0-0.4,0-0.8,0-1.2C8.8,18.7,14.2,12.2,21.5,10.6z"/>
	<path d="M34.2,39.9c-2.6,1.8-5.7,2.8-9.1,2.8c-4.8,0-9-2-12-5.3l2-1.2c2.5,2.6,6,4.2,10,4.2c2.1,0,4-0.4,5.8-1.3L34.2,39.9z"/>
	<path d="M47.4,37.7l-16-9.2c0.2-0.6,0.3-1.3,0.3-2c0-2.6-1.5-4.9-3.7-6l3.4-3.4c0.1-0.1,0.2-0.3,0.1-0.5L26.7,1.4
		C26.6,1.1,26.4,1,26.2,1H24c-0.3,0-0.5,0.2-0.5,0.5v18.4c-3.1,0.7-5.2,3.4-5.2,6.6c0,0.1,0,0.3,0,0.4l-4.6-1.2
		c-0.2,0-0.4,0-0.5,0.1L2.4,37.7c-0.1,0.2-0.2,0.4-0.1,0.6l1.1,1.9c0.1,0.1,0.2,0.2,0.3,0.2s0.3,0,0.4-0.1l16-9.2
		c1.3,1.4,3,2.2,4.9,2.2c1.3,0,2.6-0.4,3.7-1.1l1.2,4.6c0,0.2,0.2,0.3,0.4,0.4L46,40.5h0.1c0.2,0,0.3-0.1,0.4-0.3l1.1-1.9
		C47.8,38.1,47.7,37.8,47.4,37.7z M27.4,26.5c0,1.3-1.1,2.4-2.4,2.4s-2.4-1.1-2.4-2.4s1.1-2.4,2.4-2.4S27.4,25.2,27.4,26.5z"/>
</g>
</svg>
