<?xml version="1.0" encoding="utf-8"?>
<!-- Generator: Adobe Illustrator 23.0.3, SVG Export Plug-In . SVG Version: 6.00 Build 0)  -->
<svg version="1.1" id="Layer_1" xmlns="http://www.w3.org/2000/svg" xmlns:xlink="http://www.w3.org/1999/xlink" x="0px" y="0px"
	 viewBox="0 0 70 70" style="enable-background:new 0 0 70 70;" xml:space="preserve">
<style type="text/css">
	.st0{fill:#FFFFFF;}
</style>
<path class="st0" d="M35.1-0.2C15.7-0.2,0,15.5,0,34.9S15.7,70,35.1,70s35.1-15.7,35.1-35.1l0,0C70.2,15.6,54.4-0.1,35.1-0.2z
	 M35.1,64.4C18.9,64.4,5.7,51.2,5.7,35S18.9,5.6,35.1,5.6S64.5,18.8,64.5,35S51.3,64.3,35.1,64.4z"/>
<path class="st0" d="M24.6,16.8c-1.3,0.5-2.7,1.1-3.8,1.9c-1.1,0.7-2,1.7-2.8,2.8c-0.2,0.2-0.3,0.5-0.4,0.9s-0.2,0.6-0.1,0.9
	c0.1,0.7,0.4,1.2,0.9,1.7c0.5,0.5,1.2,0.7,1.9,0.7s1.4-0.2,2-0.4c0.7-0.2,1.3-0.5,1.9-0.9c0.6-0.3,1.3-0.6,2-0.9
	c1.3-0.6,2.5-1.3,3.9-2c1.4-0.6,2.9-0.9,4.4-1.1h0.5l0,0h0.5c0.4,0,0.8,0.1,1.2,0.2c0.8,0.1,1.5,0.4,2.1,0.8l-0.1,0.2
	c-0.7-0.2-1.4-0.2-2.1-0.2c-0.7,0.1-1.4,0.2-2,0.3c-1.3,0.3-2.7,0.8-4,1.4c-1.2,0.5-2.6,1.2-4,1.8c-1.4,0.6-2.8,1-4.3,1.3
	c-0.8,0.2-1.5,0.2-2.3,0.2c-0.8-0.1-1.6-0.3-2.2-0.9c-0.6-0.5-1.1-1.2-1.4-2c-0.2-0.9-0.2-1.7,0.2-2.5s0.8-1.4,1.4-2
	c0.5-0.5,1.2-0.9,2-1.3c1.3-0.7,2.9-1.1,4.4-1L24.6,16.8z"/>
<path class="st0" d="M42.5,25.1c1.4,0.2,2.8,0.3,4.2,0.2c1.3-0.1,2.7-0.5,3.8-1.1c0.2-0.2,0.5-0.3,0.7-0.5c0.2-0.2,0.4-0.5,0.5-0.8
	c0.2-0.6,0.3-1.3,0.1-2c-0.2-0.6-0.7-1.2-1.2-1.5c-0.6-0.3-1.3-0.5-2-0.6c-0.7-0.1-1.4-0.2-2.1-0.2c-0.7-0.1-1.4-0.1-2.2-0.1
	c-1.5-0.1-2.9,0-4.4-0.2c-1.5-0.2-3-0.5-4.4-1.2l-0.5-0.2l0,0l-0.5-0.3c-0.3-0.2-0.6-0.4-0.9-0.6c-0.6-0.5-1.1-1.1-1.5-1.7l0.2-0.1
	c0.5,0.5,1.1,0.9,1.7,1.2c0.6,0.3,1.2,0.5,2,0.7c1.3,0.4,2.7,0.6,4.1,0.7c1.4,0.1,2.9,0.2,4.4,0.4c1.5,0.2,3,0.5,4.4,0.9
	c0.7,0.2,1.4,0.6,2,1c0.7,0.4,1.2,1,1.5,1.8c0.3,0.8,0.4,1.6,0.2,2.3c-0.2,0.9-0.6,1.6-1.3,2.1c-0.6,0.5-1.4,0.9-2.2,1
	c-0.8,0.2-1.6,0.2-2.3,0.2c-1.6,0-3-0.5-4.3-1.2L42.5,25.1z"/>
<path class="st0" d="M32.4,12.5c0,0.4-0.5,0.7-1.2,0.7c-0.7,0-1.2-0.3-1.2-0.7c0-0.4,0.5-0.7,1.2-0.7S32.4,12.1,32.4,12.5z"/>
<path class="st0" d="M41.2,21.2c0.3,0.2,0.2,0.9-0.2,1.4s-1,0.8-1.3,0.5c-0.3-0.2-0.2-0.9,0.2-1.4C40.3,21.2,40.9,20.9,41.2,21.2z"
	/>
<path class="st0" d="M36.9,32.4c0.1,0.3,0.2,0.6,0.5,0.9c0.1,0.1,0.2,0.2,0.4,0.2c0.2,0,0.5-0.2,0.5-0.5c0-0.1,0-0.1,0-0.2
	c0-0.2-0.1-0.2-0.2-0.3c-0.3-0.2-0.6-0.3-0.9-0.3C37,32.2,36.9,32.2,36.9,32.4L36.9,32.4z"/>
<path class="st0" d="M37.8,31.2c-0.1,0-0.2,0.1-0.2,0.2v0.1c0.2,0.3,0.4,0.6,0.6,0.8c0.1,0.1,0.2,0.1,0.4,0.1c0.2,0,0.5-0.2,0.5-0.5
	c0-0.1,0-0.1-0.1-0.2c-0.1-0.2-0.2-0.2-0.2-0.3C38.5,31.2,38.1,31.2,37.8,31.2z"/>
<path class="st0" d="M36.8,25.5L36.8,25.5c-1.4,0.3-2.4,1.5-2.5,3c0,0.2-0.1,0.5-0.2,0.8c-0.9-0.7-1.4-1.9-1.2-3
	c0-0.1,0-0.2-0.1-0.2c-0.3-0.3-0.6,0-0.8,0.2c-0.1,0.1-0.1,0.2-0.1,0.2c0,1.3,0.7,2.7,1.8,3.4c-0.2,0.2-0.4,0.3-0.6,0.5
	c-1.3,0.6-2,2-1.9,3.4l0,0c0,0.1,0.1,0.2,0.2,0.2h0.1c0.1,0,0.2-0.1,0.2-0.1c0.5-0.2,3.1-0.7,5.2,0.5c1.2,0.8,2.1,2.1,2.4,3.5
	c0,0.2,0.2,0.2,0.3,0.2c0.9,0,1.9-0.5,2.5-1.3c0.2-0.2,0.2-0.5,0.3-0.7c0.1-0.4,0.2-0.7,0.5-0.9c0.2-0.2,0.4-0.3,0.5-0.5
	c0.5-0.9,0.6-1.9,0.3-2.8c0-0.1-0.2-0.2-0.2-0.2l0,0c-5.5,0.7-6.4-4.5-6.6-5.5c0-0.1,0-0.2,0-0.2s-0.1-0.2-0.2-0.2
	C36.9,25.5,36.9,25.5,36.8,25.5z M37.6,29.6c0.5,0.9,1.3,1.6,2.2,2.1c1,0.5,2.2,0.7,3.4,0.6c-0.4,0.2-0.9,0.4-1.3,0.4
	c-0.2,0-0.2,0.1-0.3,0.2c0.1,0.9-0.6,1.1-0.9,1.1c-0.1,0-0.1,0-0.1,0.1c0,0,0,0,0,0.1c0.2,0.3,0.3,0.9-0.6,1.2
	c-0.2,0.1-0.2,0.2-0.2,0.3c0.2,0.5,0.2,0.9,0.1,1.4c-0.4-1.4-1.3-2.7-2.6-3.4c-1.1-0.6-2.4-0.9-3.7-0.9c-0.5,0-1.1,0.1-1.6,0.2
	c0.4-0.5,1-0.8,1.6-0.7c0.2,0,0.2-0.1,0.3-0.2l0,0c0-0.7,0.5-1.2,1.2-1.3c0.2,0,0.2,0,0.4,0.1c0.1,0,0.2-0.1,0.2-0.1v-0.1
	c-0.4-0.5-0.3-1.2,0.2-1.6c0.1-0.1,0.2-0.2,0.4-0.2c0.2-0.1,0.2-0.2,0.1-0.3l0,0c-0.3-0.6-0.3-1.3,0.1-1.9
	C36.6,27.6,37,28.6,37.6,29.6L37.6,29.6z"/>
<path class="st0" d="M51,38.2c-1.3,0.5-2,0.7-2.6,0.5c-0.8-0.3-1.7-2.2-1.7-2.2c-0.5,1.3-0.2,2.8,0.8,3.9c-0.1,0.1-0.1,0.2-0.2,0.5
	c-0.4-0.2-0.9-0.4-1.4-0.4c0.2,0.2,0.5,0.4,0.8,0.6l0.4,0.3c-0.1,0.2-0.2,0.5-0.4,0.7c-0.2-0.2-0.3-0.2-0.5-0.4
	c-0.3-0.2-0.7-0.4-1.1-0.5c0.2,0.3,0.5,0.5,0.8,0.9c0.2,0.2,0.3,0.3,0.5,0.5c-0.2,0.2-0.3,0.4-0.5,0.6c-0.2-0.2-0.3-0.4-0.5-0.5
	c-0.3-0.4-0.7-0.7-1.2-0.9c0.2,0.5,0.5,0.9,0.7,1.2c0.2,0.2,0.2,0.5,0.4,0.8c-0.2,0.2-0.5,0.4-0.8,0.5c-0.1-0.3-0.2-0.6-0.4-0.9
	c-0.2-0.5-0.5-0.9-0.9-1.3c0.1,0.5,0.2,1,0.4,1.5c0.1,0.4,0.2,0.7,0.2,1.1c-0.4,0.2-0.7,0.2-1.1,0.2c-0.1-0.4-0.2-0.8-0.2-1.2
	C42.3,43,42,42.5,41.7,42c0,0.6,0.1,1.1,0.1,1.6c0,0.4,0,0.8,0.1,1.1c-0.4,0-0.8,0-1.2-0.1c0-0.5,0-1-0.1-1.6
	c-0.1-0.6-0.2-1.3-0.5-1.9c-0.1,0.6-0.1,1.2-0.2,1.9c0,0.5-0.1,0.9-0.2,1.4c-0.5-0.1-0.9-0.2-1.2-0.2c0.2-1.6-0.1-3.3-0.7-3.8
	c-1.2-0.9-5.2,0.5-6.6,2.3c-0.2,0.3-0.2,0.8,0.2,1c0.1,0,0.1,0.1,0.2,0.1c1.5,0.7,3,1.6,4.4,2.5c0.2,0.2,0.3,0.4,0.2,0.6
	c-0.1,0.2-0.4,0.3-0.6,0.2l0,0c-1.3-0.9-2.5-1.6-3.5-2c-0.2-0.1-0.3,0-0.4,0.2c-0.1,0.1-0.1,0.2,0.1,0.3c1.5,1.6,4.4,3.2,5.5,2.7
	c0.6-0.3,1.2-1.6,1.4-3.1c0.4,0.1,0.8,0.2,1.2,0.2c-0.1,0.5-0.1,0.9-0.2,1.4c-0.1,0.6-0.2,1.2-0.2,1.9c0.4-0.5,0.7-1.1,0.9-1.8
	c0.2-0.5,0.2-0.9,0.3-1.4c0.4,0.1,0.9,0.1,1.3,0.1l0.1,1.2c0,0.5,0.1,1.1,0.1,1.6c0.3-0.5,0.5-1.1,0.5-1.6c0.1-0.5,0.2-0.9,0.2-1.3
	c0.5-0.1,0.9-0.2,1.2-0.3l0.2,1c0.1,0.5,0.2,1,0.4,1.5c0.2-0.5,0.2-1,0.2-1.6c0-0.4-0.1-0.9-0.2-1.2c0.3-0.2,0.7-0.4,1-0.6l0.5,0.9
	c0.2,0.4,0.5,0.8,0.7,1.2c0-0.5,0-1-0.2-1.5c-0.1-0.4-0.2-0.8-0.5-1.2c0.2-0.2,0.5-0.5,0.6-0.7l0.4,0.5c0.2,0.3,0.5,0.5,0.8,0.9
	c-0.1-0.4-0.2-0.8-0.4-1.1c-0.2-0.2-0.3-0.5-0.5-0.7c0.2-0.3,0.4-0.5,0.5-0.8c0.4,0.3,0.8,0.5,1.2,0.8c-0.1-0.3-0.3-0.6-0.5-0.9
	c-0.2-0.2-0.2-0.3-0.4-0.5c0.2-0.3,0.2-0.5,0.3-0.7C50.2,40.4,51,38.2,51,38.2z M35.2,43.7c-0.5,0.1-1-0.3-1.1-0.9s0.3-1,0.9-1.1
	c0.5-0.1,1,0.3,1.1,0.9c0,0.2,0,0.2,0,0.4C35.9,43.4,35.6,43.7,35.2,43.7z"/>
<path class="st0" d="M33.7,37.2c-0.8-0.9-1,0.4-4.8-0.4c-2.2-0.5-4-3.4-6.1-3c-0.2-0.7-0.2-1.4,0.2-2.1c0.1-0.2,0-0.5-0.2-0.6l0,0
	l-0.4-0.2c-0.2-0.1-0.5,0-0.5,0.2c-0.5,1-0.5,2.2-0.1,3.2c-1.9,1.7,0.4,6.9-0.8,8.8c-1.2,2-3.1,2.7-2.7,3.5c0.4,0.9,3.1-0.8,5-3.1
	c0.2-0.2,0.3-0.4,0.5-0.6c0.1-0.5,0-1-0.1-1.5c-0.2-1.2-0.7-2.3-1.2-3.3c-0.2-0.5-0.4-1.1-0.2-1.6c0.2,0.5,0.4,0.9,0.7,1.4
	c0.7,1,1.2,2.1,1.4,3.4c0,0.1,0,0.1,0,0.2l0,0c0.1,1.2,0,2.4-0.2,3.7l0,0c0,0.1,0,0.1,0,0.2l0,0c0,0.1,0,0.1,0,0.2l0,0v0.1v0.1v0.1
	c0,0,0,0,0,0.1v0.1c0,0,0,0,0,0.1v0.1c0,0,0,0,0,0.1v0.1c0,0,0,0,0,0.1c0,0,0,0,0,0.1l0,0c0,0,0,0,0,0.1l0,0l0,0l0,0c0,0,0,0,0.1,0
	l0,0c0,0,0,0,0.1,0l0,0h0.1c0.1,0,0.1,0,0.2,0c0,0,0,0,0.1,0h0.1c0,0,0,0,0.1,0h0.1c0,0,0,0,0.1,0c0,0,0.1,0,0.1-0.1
	c0,0,0.1,0,0.1-0.1c0,0,0,0,0.1,0l0.1-0.1l0,0c1.2-1.4,2-3.3,2-5.1c-0.3-1.6-1-3-2-4.1c-0.2-0.3-1.2-1.2-1.2-1.2
	c0.5,0.2,1.1,0.4,1.5,0.8c0.9,0.9,1.6,1.9,1.9,3c0.5,0.2,1.2,0.3,1.8,0.3C30.9,39.5,34.4,38,33.7,37.2z"/>
<path class="st0" d="M48.8,37.9c0.1,0,0.1,0,0.2,0c0.3,0,0.7-0.1,1-0.2c-0.5-0.3-1-0.5-1.6-0.5c-0.1,0-0.2,0-0.3,0
	C48.3,37.3,48.5,37.6,48.8,37.9z"/>
<path class="st0" d="M42.4,32.6c-0.1,0-0.2,0-0.2,0c-0.2,0-0.2,0-0.4,0.1c-0.2,0-0.2,0.1-0.3,0.2c0.1,0.9-0.5,1.1-0.9,1.1h-0.1l0,0
	c-0.1,0-0.1,0-0.1,0.1l0,0c0.2,0.3,0.3,0.9-0.6,1.2c-0.2,0.1-0.2,0.2-0.2,0.3c0.2,0.5,0.2,0.9,0.1,1.4c-0.4-1.4-1.3-2.7-2.6-3.4
	c-1.1-0.6-2.3-0.9-3.5-0.9c-0.1,0-0.1,0-0.2,0c-0.5,0-1.1,0.1-1.6,0.2c0.3-0.4,0.9-0.7,1.3-0.7c0.1,0,0.2,0,0.3,0c0,0,0,0,0.1,0
	c0.2,0,0.2-0.1,0.2-0.2c0-0.7,0.5-1.2,1.2-1.3h0.1c0.1,0,0.2,0,0.3,0l0,0c0.1,0,0.2-0.1,0.2-0.2v-0.1c-0.2-0.2-0.2-0.6-0.2-1
	c-0.5,0.2-0.9,0.4-1.2,0.7c-0.4,0.3-0.9,0.4-1.3,0.2c-1.1,0.6-1.7,2-1.6,3.2l0,0c0,0.1,0.1,0.2,0.2,0.2h0.1c0.1,0,0.2-0.1,0.2-0.1
	c0.7-0.2,1.3-0.2,2-0.2c1.1,0,2.2,0.2,3.2,0.8c1.2,0.8,2.1,2.1,2.4,3.5c0,0.1,0.2,0.2,0.2,0.2l0,0c0.9,0,1.9-0.5,2.5-1.3
	c0.2-0.2,0.2-0.5,0.3-0.7c0.1-0.4,0.2-0.7,0.5-0.9c0.2-0.2,0.4-0.3,0.5-0.5c0.4-0.5,0.5-1.2,0.5-1.8C43.4,32.6,43,32.6,42.4,32.6z"
	/>
<path class="st0" d="M50.9,38.5c-0.1-0.1-0.1-0.2-0.2-0.2c-0.5,0.2-1.1,0.4-1.7,0.5c-0.2,0-0.3,0-0.5-0.1c-0.8-0.3-1.7-2.2-1.7-2.2
	c-0.5,1.3-0.2,2.8,0.8,3.9c-0.1,0.1-0.1,0.2-0.2,0.5c-0.4-0.2-0.9-0.4-1.4-0.4c0.2,0.2,0.5,0.4,0.8,0.6l0.4,0.3
	c-0.1,0.2-0.2,0.5-0.4,0.7c-0.2-0.2-0.3-0.2-0.5-0.4c-0.3-0.2-0.7-0.4-1.1-0.5c0.2,0.3,0.5,0.5,0.8,0.9c0.2,0.2,0.3,0.3,0.5,0.5
	c-0.2,0.2-0.3,0.4-0.5,0.6c-0.2-0.2-0.3-0.4-0.5-0.5c-0.3-0.4-0.7-0.7-1.2-0.9c0.2,0.5,0.5,0.9,0.7,1.2c0.2,0.2,0.2,0.5,0.4,0.8
	c-0.2,0.2-0.5,0.4-0.8,0.5c-0.1-0.3-0.2-0.6-0.4-0.9c-0.2-0.5-0.5-0.9-0.9-1.3c0.1,0.5,0.2,1,0.4,1.5c0.1,0.4,0.2,0.7,0.2,1.1
	c-0.4,0.2-0.7,0.2-1.1,0.2c-0.1-0.4-0.2-0.8-0.2-1.2C42.3,43,42,42.5,41.7,42c0,0.6,0.1,1.1,0.1,1.6c0,0.4,0,0.8,0.1,1.1l0,0
	c-0.4,0-0.8,0-1.2-0.1c0-0.5,0-1-0.1-1.6c-0.1-0.6-0.2-1.3-0.5-1.9c-0.1,0.6-0.1,1.2-0.2,1.9c0,0.5-0.1,0.9-0.2,1.4
	c-0.5-0.1-0.9-0.2-1.2-0.2c0.2-1.6-0.1-3.3-0.7-3.8c-0.3-0.2-0.7-0.3-1.1-0.3c-2.1,0.2-4.1,1-5.5,2.6c-0.2,0.3-0.2,0.8,0.2,1
	c0.1,0,0.1,0.1,0.2,0.1c1.5,0.7,3,1.6,4.4,2.5c0.2,0.2,0.3,0.4,0.2,0.6c-0.1,0.2-0.2,0.2-0.4,0.2c0,0,0,0-0.1,0s-0.2,0-0.2-0.1
	c-1.3-0.9-2.5-1.6-3.5-2c-0.2-0.1-0.3,0-0.4,0.2c-0.1,0.1-0.1,0.2,0.1,0.4c1.2,1.5,3.7,2.8,5.1,2.8c0.2,0,0.3,0,0.5-0.1
	c0.6-0.3,1.2-1.6,1.4-3.1c0.4,0.1,0.8,0.2,1.2,0.2c-0.1,0.5-0.1,0.9-0.2,1.4c-0.1,0.6-0.2,1.2-0.2,1.9c0.4-0.5,0.7-1.1,0.9-1.8
	c0.2-0.5,0.2-0.9,0.3-1.4c0.4,0.1,0.8,0.1,1.2,0.1h0.1l0.1,1.2c0,0.5,0.1,1.1,0.1,1.6c0.3-0.5,0.5-1.1,0.5-1.6
	c0.1-0.5,0.2-0.9,0.2-1.3c0.5-0.1,0.9-0.2,1.2-0.3l0.2,1c0.1,0.5,0.2,1,0.4,1.5c0.2-0.5,0.2-1,0.2-1.6c0-0.4-0.1-0.9-0.2-1.2
	c0.3-0.2,0.7-0.4,1-0.6l0.5,0.9c0.2,0.4,0.5,0.8,0.7,1.2c0-0.5,0-1-0.2-1.5c-0.1-0.4-0.2-0.8-0.5-1.2c0.2-0.2,0.5-0.5,0.6-0.7
	l0.4,0.5c0.2,0.3,0.5,0.5,0.8,0.9c-0.1-0.4-0.2-0.8-0.4-1.1c-0.2-0.2-0.3-0.5-0.5-0.7c0.2-0.3,0.4-0.5,0.5-0.8
	c0.4,0.3,0.8,0.5,1.2,0.8c-0.1-0.3-0.3-0.6-0.5-0.9c-0.2-0.2-0.2-0.3-0.4-0.5c0.2-0.3,0.2-0.5,0.3-0.7
	C49.5,40.4,50.3,39.6,50.9,38.5z M36,43c-0.1,0.4-0.5,0.6-0.9,0.7H35c-0.5,0-1-0.5-1-1c0-0.5,0.4-0.9,0.9-1h0.1c0.5,0,1,0.5,1,1
	C36,42.9,36,42.9,36,43L36,43z"/>
<path class="st0" d="M37.6,29.6c0.5,0.9,1.3,1.6,2.2,2.1c0.5,0.2,0.9,0.4,1.4,0.5c-0.1-0.1-0.2-0.2-0.2-0.3
	c-0.1-0.2-0.2-0.4-0.4-0.5c-0.9-0.3-1.6-0.9-2.2-1.7c-0.3-0.2-0.6-0.2-1-0.2C37.4,29.4,37.5,29.4,37.6,29.6z"/>
<path class="st0" d="M18.1,46.6c0.1,0.2,0.2,0.2,0.4,0.2c0.9,0,3-1.4,4.5-3.4c0.2-0.2,0.3-0.4,0.5-0.6c0.1-0.5,0-1-0.1-1.5
	c-0.2-1.2-0.7-2.3-1.2-3.3c-0.2-0.5-0.3-0.9-0.3-1.4c-0.4,0.1-0.7,0.2-1.1,0.3c0,2.2,0.8,4.8-0.1,6.1C19.5,45,17.7,45.7,18.1,46.6z"
	/>
<path class="st0" d="M56.8,46.4c-0.2-0.7-0.5-1.4-0.9-2c-0.6-0.9-1.6-1.6-2.7-1.7c-0.8-0.1-1.3-0.7-1.3-1.5
	c-0.1-0.5-0.2-1.2-0.5-1.6c-0.5,0.9-1.2,1.6-2.2,1.9c0.2,0.3,0.5,0.7,0.5,1.1c0.2,0.5-0.1,0.9-0.5,1.1c-0.2,0.1-0.3,0.1-0.5,0
	c0.1,0.3,0.2,0.5,0.2,0.9c0.1,0.5-0.2,0.9-0.7,1c-0.2,0-0.4,0-0.6-0.2c0.1,0.5,0.2,0.9,0.1,1.3c0,0.5-0.5,0.9-0.9,0.8
	c-0.3,0-0.5-0.2-0.7-0.4c-0.2-0.2-0.3-0.5-0.4-0.7l0,0c0,0.6-0.1,1.2-0.2,1.9c-0.1,0.4-0.5,0.6-0.9,0.6l0,0c-0.4,0-0.7-0.2-0.9-0.6
	c-0.1-0.4-0.2-0.8-0.2-1.1c0,0.1,0,0.1,0,0.2c-0.2,0.7-0.3,1.3-0.7,1.9c-0.2,0.4-0.8,0.5-1.2,0.3c-0.2-0.2-0.4-0.4-0.4-0.7
	c-0.1-0.5-0.1-0.9-0.1-1.3c-0.2,0.7-0.5,1.4-1,2c-0.3,0.4-0.9,0.5-1.2,0.2c-0.2-0.2-0.4-0.5-0.3-0.8c0-0.2,0.1-0.5,0.1-0.7
	c-0.2,0.5-0.6,0.9-1.2,1.2c-0.2,0.1-0.5,0.2-0.9,0.2c-1.6,0-4.3-1.5-5.8-3.1c-0.3-0.3-0.4-0.9-0.2-1.2c0.1-0.1,0.2-0.2,0.2-0.3
	c-0.4-0.2-0.6-0.6-0.7-1c-0.1-0.5,0-1,0.3-1.3c1.6-1.7,3.9-2.7,6.2-2.9c0.5,0,1.2,0.2,1.6,0.5c0.4,0.4,0.7,0.9,0.9,1.3l0,0
	c0.1-0.5,0.5-0.9,0.9-0.8c0.3,0,0.5,0.2,0.7,0.5c0.1,0.2,0.2,0.3,0.2,0.5c0.3-0.4,0.9-0.4,1.2,0l0.1,0.1l0,0
	c0.2-0.4,0.6-0.5,1.1-0.4c0.2-0.2,0.5-0.4,0.9-0.4c0.2-0.3,0.4-0.5,0.7-0.5c0.1-0.4,0.5-0.7,0.9-0.7l0,0H46
	c-0.5-1.1-0.5-2.3-0.1-3.4c0.1-0.3,0.4-0.5,0.8-0.6h0.1c0.1,0,0.1,0,0.2,0c-0.2-0.9-0.9-1.9-1.6-2.5c-0.1-0.1-0.2-0.2-0.3-0.2
	c0,0.7-0.2,1.5-0.6,2.1c-0.2,0.3-0.5,0.6-0.9,0.9c-0.2,0-0.3,0.1-0.3,0.2c-0.1,0.4-0.2,0.8-0.5,1.1c-0.7,1-1.9,1.6-3,1.6
	c-0.5,0.1-1.1-0.3-1.2-0.9c-0.2-1.2-0.9-2.3-2-3c-0.9-0.5-1.8-0.7-2.7-0.7c-0.5,0-1.2,0.1-1.7,0.2l0,0c-0.5,0.3-1.2,0.2-1.4-0.3
	c-0.1-0.2-0.2-0.3-0.2-0.5c-0.2-1.4,0.4-2.8,1.5-3.7c-1.4-0.5-3.2-0.7-5.5,1c-0.8,0.6-1.4,1.3-2,2.2c0.7,0.4,1.4,0.8,2,1.3
	c0.7,0.6,1.6,1.1,2.4,1.4c0.7,0.2,1.5,0.2,2.2,0.2c0.4,0,0.8,0,1.2-0.1C32.6,36,32.8,36,33,36c0.5,0,0.9,0.2,1.2,0.6
	c0.3,0.4,0.4,0.9,0.2,1.4c-0.6,1.3-3.7,2.4-5.5,2.4h-0.1c-0.5,0-0.9-0.1-1.2-0.2c0,0.1,0.1,0.2,0.1,0.3c0,0,0,0,0,0.1
	c0.1,2.2-0.7,4.3-2.2,5.9l0,0c-0.1,0-0.1,0.1-0.2,0.1l-0.1,0.1l-0.1,0.1c-0.1,0-0.1,0.1-0.2,0.1c0,0-0.1,0-0.1,0.1
	c-0.1,0-0.1,0.1-0.2,0.1h-0.1c-0.1,0-0.1,0-0.2,0.1h-0.1c-0.1,0-0.2,0-0.3,0c-0.1,0-0.2,0-0.2,0h-0.1c-0.1,0-0.1,0-0.2-0.1
	c0,0-0.1,0-0.1-0.1c-0.1,0-0.1-0.1-0.2-0.1l-0.1-0.1c-0.1,0-0.1-0.1-0.1-0.1l-0.1-0.1c0-0.1-0.1-0.1-0.1-0.2c0,0,0-0.1-0.1-0.1
	c0,0,0-0.1-0.1-0.2v-0.1v-0.1v-0.1V46v-0.1c0-0.1,0-0.1,0-0.2v-0.1c0-0.1,0-0.1,0-0.2v-0.1c0-0.1,0-0.1,0-0.2v-0.1
	c0-0.1,0-0.1,0-0.2l0,0V45c-1.4,1.5-3.3,2.7-4.4,2.7c-0.5,0-1-0.2-1.2-0.7c-0.5-1,0.3-1.8,1.1-2.5c0.6-0.5,1.2-1.2,1.6-1.9
	c0.4-0.5,0.2-2.1,0.1-3.4C20.1,38.6,20,38,20,37.5c-0.4,0.2-0.7,0.5-0.9,0.9c-0.8,1-1.2,2.3-1.2,3.6c0,0.7-0.5,1.3-1.2,1.5
	c-1.2,0.2-2.1,0.9-2.7,2c0,0,0,0,0,0.1c-0.9,1.5-0.5,3.4,1,4.4c0.5,0.3,1.1,0.5,1.6,0.5c8.3,0.1,29.3,0,37.2,0
	c1.8,0,3.2-1.4,3.2-3.2C56.9,46.8,56.9,46.6,56.8,46.4z"/>
<path class="st0" d="M27.2,39.2c0.5,0.2,1.2,0.3,1.8,0.3h0.1c2,0,5.4-1.5,4.6-2.3c-0.2-0.2-0.4-0.3-0.6-0.3
	c-0.6,0.1-1.2,0.2-1.9,0.2c-0.8,0-1.6-0.1-2.3-0.2c-1.7-0.3-3.2-2.1-4.7-2.8c-0.2,0.5-0.4,0.9-0.5,1.5c-0.2,0.6-0.6,1-1.2,1.2
	c-0.1,0-0.2,0-0.3,0.1c0.2,0.4,0.4,0.8,0.6,1.2c0.7,1,1.2,2.1,1.4,3.4c0,0.1,0,0.1,0,0.2l0,0c0.1,1.2,0,2.4-0.2,3.7l0,0
	c0,0.1,0,0.1,0,0.2l0,0c0,0.1,0,0.1,0,0.2l0,0v0.1v0.1v0.1c0,0,0,0,0,0.1v0.1c0,0,0,0,0,0.1v0.1c0,0,0,0,0,0.1v0.1c0,0,0,0,0,0.1
	c0,0,0,0,0,0.1l0,0c0,0,0,0,0,0.1l0,0l0,0l0,0c0,0,0,0,0.1,0l0,0c0,0,0,0,0.1,0l0,0h0.1l0,0c0.1,0,0.1,0,0.2,0c0,0,0,0,0.1,0h0.1
	c0,0,0,0,0.1,0h0.1c0,0,0,0,0.1,0c0,0,0.1,0,0.1-0.1c0,0,0.1,0,0.1-0.1c0,0,0,0,0.1,0l0.1-0.1l0,0c1.2-1.4,1.9-3.3,1.9-5.1
	c-0.3-1.6-1-3-1.9-4.1c-0.2-0.3-1.2-1.2-1.2-1.2c0.5,0.2,1.1,0.4,1.5,0.8C26.1,37,26.8,38,27.2,39.2z"/>
</svg>
