<?xml version="1.0" encoding="utf-8"?>
<!-- Generator: Adobe Illustrator 23.0.3, SVG Export Plug-In . SVG Version: 6.00 Build 0)  -->
<svg version="1.1" id="Layer_1" xmlns="http://www.w3.org/2000/svg" xmlns:xlink="http://www.w3.org/1999/xlink" x="0px" y="0px"
	 viewBox="0 0 92.6 92.8" style="enable-background:new 0 0 92.6 92.8;" xml:space="preserve">
<path d="M46.6,1.5c-24.9,0-45,20.1-45,45s20.1,45,45,45s45-20.1,45-45c0,0,0,0,0,0C91.6,21.7,71.4,1.6,46.6,1.5z M46.6,84.3
	c-20.8,0-37.7-16.9-37.7-37.7c0-20.8,16.9-37.7,37.7-37.7c20.8,0,37.7,16.9,37.7,37.7C84.3,67.4,67.4,84.2,46.6,84.3z"/>
<path d="M33.2,23.3c-1.7,0.6-3.4,1.4-4.9,2.4c-1.4,0.9-2.6,2.2-3.6,3.6c-0.2,0.3-0.4,0.7-0.5,1.1c-0.1,0.4-0.2,0.8-0.1,1.2
	c0.1,0.9,0.5,1.6,1.1,2.2c0.6,0.6,1.5,0.9,2.4,0.9c0.9,0,1.8-0.2,2.6-0.5c0.9-0.3,1.7-0.7,2.5-1.1c0.8-0.4,1.7-0.8,2.5-1.2
	c1.7-0.8,3.2-1.7,5-2.5c1.8-0.8,3.7-1.2,5.7-1.4l0.7,0h0l0.7,0c0.5,0,1,0.1,1.5,0.2c1,0.1,1.9,0.5,2.7,1l-0.1,0.2
	c-0.9-0.2-1.8-0.3-2.7-0.2c-0.9,0.1-1.8,0.2-2.6,0.4c-1.7,0.4-3.4,1-5.1,1.8c-1.6,0.7-3.3,1.6-5.1,2.3c-1.8,0.8-3.6,1.3-5.5,1.7
	c-1,0.2-1.9,0.2-2.9,0.2c-1-0.1-2-0.4-2.8-1.1c-0.8-0.6-1.4-1.5-1.8-2.5c-0.3-1.1-0.2-2.2,0.2-3.2c0.4-1,1-1.8,1.8-2.5
	c0.7-0.7,1.6-1.2,2.5-1.7c1.7-0.9,3.7-1.4,5.6-1.3L33.2,23.3z"/>
<path d="M56.1,34c1.8,0.3,3.6,0.4,5.4,0.3c1.7-0.1,3.4-0.6,4.9-1.4c0.3-0.2,0.7-0.4,0.9-0.7c0.3-0.3,0.5-0.6,0.7-1
	c0.3-0.8,0.4-1.7,0.1-2.5c-0.3-0.8-0.9-1.5-1.6-1.9c-0.8-0.4-1.7-0.7-2.5-0.8c-0.9-0.1-1.8-0.2-2.7-0.3c-0.9-0.1-1.8-0.1-2.8-0.1
	c-1.9-0.1-3.7,0-5.6-0.3c-1.9-0.2-3.8-0.7-5.6-1.6l-0.7-0.3l0,0l-0.6-0.4c-0.4-0.3-0.8-0.5-1.2-0.8c-0.8-0.6-1.4-1.4-1.9-2.2
	l0.2-0.1c0.7,0.6,1.4,1.1,2.2,1.5c0.8,0.4,1.6,0.7,2.5,0.9c1.7,0.5,3.5,0.8,5.3,0.9c1.8,0.1,3.7,0.3,5.6,0.5
	c1.9,0.2,3.8,0.6,5.6,1.2c0.9,0.3,1.8,0.8,2.6,1.3c0.9,0.5,1.5,1.3,1.9,2.3c0.4,1,0.5,2,0.3,3c-0.2,1.1-0.8,2-1.7,2.7
	c-0.8,0.6-1.8,1.1-2.8,1.3c-1,0.2-2,0.3-3,0.3c-2,0-3.9-0.6-5.5-1.6L56.1,34z"/>
<path d="M43.2,17.8c0,0.5-0.7,0.9-1.6,0.9S40,18.3,40,17.8s0.7-0.9,1.6-0.9S43.2,17.3,43.2,17.8z"/>
<path d="M54.4,28.9c0.4,0.3,0.3,1.1-0.3,1.8s-1.3,1-1.7,0.7s-0.3-1.1,0.3-1.8S54,28.5,54.4,28.9z"/>
<path d="M48.9,43.3c0.1,0.4,0.3,0.8,0.6,1.2c0.1,0.1,0.3,0.2,0.5,0.2c0.3,0,0.6-0.2,0.7-0.6c0-0.1,0-0.1,0-0.2
	c0-0.2-0.1-0.3-0.3-0.4c-0.4-0.3-0.8-0.4-1.2-0.4C49,43.1,48.9,43.1,48.9,43.3C48.9,43.3,48.9,43.3,48.9,43.3z"/>
<path d="M50,41.8c-0.1,0-0.2,0.1-0.2,0.2c0,0,0,0.1,0,0.1c0.2,0.4,0.5,0.8,0.8,1c0.1,0.1,0.3,0.1,0.5,0.1c0.3,0,0.6-0.3,0.6-0.7
	c0-0.1,0-0.1-0.1-0.2c-0.1-0.2-0.2-0.3-0.3-0.4C50.9,41.8,50.4,41.7,50,41.8z"/>
<path d="M48.8,34.5L48.8,34.5c-1.8,0.4-3.1,1.9-3.2,3.8c0,0.3-0.1,0.7-0.3,1c-1.2-0.9-1.8-2.4-1.6-3.8c0-0.1,0-0.2-0.1-0.3
	c-0.4-0.4-0.8,0-1,0.2c-0.1,0.1-0.1,0.2-0.1,0.3c0,1.7,0.9,3.4,2.3,4.4c-0.2,0.2-0.5,0.4-0.8,0.6c-1.7,0.8-2.6,2.5-2.4,4.3l0,0
	c0,0.1,0.1,0.2,0.2,0.2c0,0,0.1,0,0.1,0c0.1,0,0.2-0.1,0.2-0.1c0.6-0.2,4-0.9,6.7,0.7c1.6,1,2.7,2.7,3.1,4.5c0,0.2,0.2,0.3,0.4,0.3
	c1.2,0,2.4-0.6,3.2-1.7c0.2-0.3,0.3-0.6,0.4-0.9c0.1-0.5,0.3-0.9,0.7-1.1c0.3-0.2,0.5-0.4,0.7-0.7c0.7-1.1,0.8-2.4,0.4-3.6
	c0-0.1-0.2-0.2-0.3-0.3l0,0c-7.1,0.9-8.2-5.8-8.4-7.1c0-0.1,0-0.2,0-0.3c0-0.1-0.1-0.2-0.2-0.2C48.9,34.5,48.9,34.5,48.8,34.5z
	 M49.8,39.7c0.7,1.1,1.7,2,2.8,2.7c1.3,0.7,2.8,0.9,4.3,0.8c-0.5,0.3-1.1,0.5-1.7,0.5c-0.2,0-0.3,0.1-0.4,0.3
	c0.1,1.2-0.8,1.4-1.2,1.4c-0.1,0-0.1,0-0.1,0.1c0,0,0,0,0,0.1c0.2,0.4,0.4,1.2-0.8,1.6c-0.2,0.1-0.2,0.3-0.2,0.4
	c0.2,0.6,0.2,1.2,0.1,1.8c-0.5-1.8-1.7-3.4-3.3-4.4c-1.4-0.8-3.1-1.2-4.7-1.1c-0.7,0-1.4,0.1-2.1,0.2c0.5-0.7,1.3-1,2.1-0.9
	c0.2,0,0.3-0.1,0.4-0.2c0,0,0,0,0,0c0-0.9,0.6-1.6,1.5-1.7c0.2,0,0.3,0,0.5,0.1c0.1,0,0.2-0.1,0.2-0.1c0,0,0-0.1,0-0.1
	c-0.5-0.7-0.4-1.6,0.2-2.1c0.1-0.1,0.3-0.2,0.5-0.3c0.2-0.1,0.2-0.3,0.1-0.4c0,0,0,0,0,0c-0.4-0.8-0.4-1.7,0.1-2.4
	C48.5,37.1,49,38.4,49.8,39.7L49.8,39.7z"/>
<path d="M67,50.7c-1.7,0.7-2.6,0.9-3.3,0.6c-1-0.4-2.2-2.8-2.2-2.8c-0.6,1.7-0.2,3.6,1,5c-0.1,0.1-0.1,0.3-0.3,0.6
	c-0.5-0.3-1.2-0.5-1.8-0.5c0.3,0.3,0.7,0.5,1,0.8l0.5,0.4c-0.1,0.3-0.3,0.6-0.5,0.9c-0.2-0.2-0.4-0.3-0.6-0.5
	c-0.4-0.3-0.9-0.5-1.4-0.7c0.3,0.4,0.7,0.7,1,1.1c0.2,0.2,0.4,0.4,0.6,0.6c-0.2,0.3-0.4,0.5-0.7,0.8c-0.2-0.3-0.4-0.5-0.6-0.7
	c-0.4-0.5-0.9-0.9-1.5-1.2c0.3,0.6,0.6,1.1,0.9,1.6c0.2,0.3,0.3,0.6,0.5,1c-0.3,0.3-0.6,0.5-1,0.7c-0.1-0.4-0.3-0.8-0.5-1.2
	c-0.3-0.6-0.7-1.2-1.2-1.7c0.1,0.7,0.3,1.3,0.5,1.9c0.1,0.5,0.2,0.9,0.3,1.4c-0.5,0.2-0.9,0.3-1.4,0.3c-0.1-0.5-0.2-1-0.3-1.5
	c-0.2-0.7-0.5-1.4-1-2c0,0.8,0.1,1.4,0.1,2.1c0,0.5,0,1,0.1,1.4c-0.5,0-1,0-1.5-0.1c0-0.7,0-1.3-0.1-2c-0.1-0.8-0.3-1.7-0.7-2.4
	c-0.1,0.8-0.1,1.6-0.2,2.4c0,0.6-0.1,1.2-0.2,1.8c-0.6-0.1-1.1-0.2-1.6-0.3c0.2-2.1-0.1-4.2-0.9-4.9c-1.5-1.2-6.7,0.7-8.5,2.9
	c-0.3,0.4-0.3,1,0.2,1.3c0.1,0,0.1,0.1,0.2,0.1c1.9,0.9,3.8,2,5.6,3.2c0.3,0.2,0.4,0.5,0.2,0.8c-0.1,0.3-0.5,0.4-0.8,0.2
	c0,0,0,0,0,0c-1.7-1.1-3.2-2-4.5-2.6c-0.2-0.1-0.4,0-0.5,0.2c-0.1,0.1-0.1,0.3,0.1,0.4c1.9,2.1,5.7,4.1,7.1,3.5
	c0.8-0.4,1.5-2.1,1.8-4c0.5,0.1,1,0.2,1.6,0.3c-0.1,0.6-0.1,1.2-0.2,1.8c-0.1,0.8-0.2,1.6-0.3,2.4c0.5-0.7,0.9-1.4,1.1-2.3
	c0.2-0.6,0.3-1.2,0.4-1.8c0.5,0.1,1.1,0.1,1.7,0.1l0.1,1.6c0,0.7,0.1,1.4,0.1,2.1c0.4-0.6,0.6-1.4,0.7-2.1c0.1-0.6,0.2-1.1,0.2-1.7
	c0.6-0.1,1.1-0.2,1.6-0.4l0.3,1.3c0.1,0.6,0.3,1.3,0.5,1.9c0.2-0.7,0.3-1.3,0.3-2c0-0.5-0.1-1.1-0.2-1.6c0.4-0.2,0.9-0.5,1.3-0.8
	l0.6,1.1c0.3,0.5,0.6,1,0.9,1.6c0-0.6,0-1.3-0.2-1.9c-0.1-0.5-0.3-1-0.6-1.5c0.3-0.3,0.6-0.6,0.8-0.9l0.5,0.6c0.3,0.4,0.6,0.7,1,1.1
	c-0.1-0.5-0.3-1-0.5-1.4c-0.2-0.3-0.4-0.6-0.6-0.9c0.3-0.4,0.5-0.7,0.7-1c0.5,0.4,1,0.7,1.5,1c-0.1-0.4-0.4-0.8-0.6-1.1
	c-0.2-0.2-0.3-0.4-0.5-0.6c0.2-0.4,0.3-0.7,0.4-0.9C65.9,53.5,67,50.7,67,50.7z M46.7,57.8c-0.7,0.1-1.3-0.4-1.4-1.1
	c-0.1-0.7,0.4-1.3,1.1-1.4c0.7-0.1,1.3,0.4,1.4,1.1c0,0.2,0,0.3,0,0.5C47.6,57.4,47.2,57.8,46.7,57.8z"/>
<path d="M44.8,49.4c-1-1.1-1.3,0.5-6.2-0.5c-2.8-0.6-5.1-4.3-7.8-3.9c-0.2-0.9-0.2-1.8,0.2-2.7c0.1-0.3,0-0.6-0.3-0.8c0,0,0,0,0,0
	l-0.5-0.2c-0.3-0.1-0.6,0-0.7,0.3c-0.6,1.3-0.6,2.8-0.1,4.1c-2.4,2.2,0.5,8.9-1,11.3c-1.6,2.5-4,3.4-3.5,4.5s4-1,6.4-4
	c0.2-0.3,0.4-0.5,0.6-0.8c0.1-0.6,0-1.3-0.1-1.9c-0.3-1.5-0.9-2.9-1.6-4.2c-0.3-0.7-0.5-1.4-0.3-2.1c0.2,0.6,0.5,1.2,0.9,1.8
	c0.9,1.3,1.5,2.7,1.8,4.3c0,0.1,0,0.1,0,0.2v0c0.1,1.6,0,3.1-0.3,4.7l0,0c0,0.1,0,0.1,0,0.2l0,0c0,0.1,0,0.1,0,0.2l0,0
	c0,0,0,0.1,0,0.1l0,0.1c0,0,0,0.1,0,0.1c0,0,0,0,0,0.1c0,0,0,0.1,0,0.1c0,0,0,0,0,0.1c0,0,0,0.1,0,0.1c0,0,0,0,0,0.1
	c0,0,0,0.1,0,0.1c0,0,0,0,0,0.1c0,0,0,0,0,0.1c0,0,0,0,0,0c0,0,0,0,0,0.1c0,0,0,0,0,0c0,0,0,0,0,0c0,0,0,0,0,0c0,0,0,0,0.1,0
	c0,0,0,0,0,0c0,0,0,0,0.1,0c0,0,0,0,0,0c0,0,0.1,0,0.1,0c0.1,0,0.1,0,0.2,0c0,0,0,0,0.1,0c0,0,0.1,0,0.1,0c0,0,0,0,0.1,0
	c0,0,0.1,0,0.1,0c0,0,0,0,0.1,0c0,0,0.1,0,0.1-0.1c0,0,0.1,0,0.1-0.1c0,0,0,0,0.1,0c0,0,0.1-0.1,0.1-0.1l0,0
	c1.6-1.8,2.5-4.2,2.5-6.6c-0.4-2-1.3-3.8-2.5-5.3c-0.3-0.4-1.5-1.5-1.5-1.5c0.7,0.2,1.4,0.5,1.9,1c1.1,1.1,2,2.4,2.5,3.8
	c0.7,0.2,1.5,0.4,2.3,0.4C41.2,52.4,45.7,50.5,44.8,49.4z"/>
<path d="M64.1,50.3c0.1,0,0.1,0,0.2,0c0.4,0,0.9-0.1,1.3-0.3c-0.6-0.4-1.3-0.7-2.1-0.7c-0.1,0-0.2,0-0.4,0
	C63.5,49.6,63.8,50,64.1,50.3z"/>
<path d="M56,43.6c-0.1,0-0.2,0-0.3,0c-0.2,0-0.3,0-0.5,0.1c-0.2,0-0.3,0.1-0.4,0.3c0.1,1.1-0.7,1.4-1.1,1.4c0,0-0.1,0-0.1,0l0,0
	c-0.1,0-0.1,0-0.1,0.1c0,0,0,0,0,0c0.2,0.4,0.4,1.2-0.8,1.6c-0.2,0.1-0.2,0.3-0.2,0.4c0.2,0.6,0.2,1.2,0.1,1.8
	c-0.5-1.8-1.7-3.4-3.3-4.4c-1.4-0.8-2.9-1.2-4.5-1.1c-0.1,0-0.1,0-0.2,0c-0.7,0-1.4,0.1-2.1,0.2c0.4-0.5,1.1-0.9,1.7-0.9
	c0.1,0,0.3,0,0.4,0c0,0,0,0,0.1,0c0.2,0,0.3-0.1,0.3-0.3c0-0.9,0.6-1.6,1.5-1.7c0,0,0.1,0,0.1,0c0.1,0,0.3,0,0.4,0c0,0,0,0,0,0
	c0.1,0,0.2-0.1,0.2-0.2c0,0,0-0.1,0-0.1C47,40.5,46.9,40,47,39.5c-0.6,0.2-1.1,0.5-1.6,0.9c-0.5,0.4-1.1,0.5-1.7,0.3
	c-1.4,0.8-2.2,2.5-2,4.1l0,0c0,0.1,0.1,0.2,0.2,0.2c0,0,0.1,0,0.1,0c0.1,0,0.2-0.1,0.2-0.1c0.9-0.2,1.7-0.3,2.6-0.3
	c1.4,0,2.8,0.3,4.1,1c1.6,1,2.7,2.7,3.1,4.5c0,0.1,0.2,0.3,0.3,0.3c0,0,0,0,0,0c1.2,0,2.4-0.6,3.2-1.7c0.2-0.3,0.3-0.6,0.4-0.9
	c0.1-0.5,0.3-0.9,0.7-1.1c0.3-0.2,0.5-0.4,0.7-0.7c0.5-0.7,0.7-1.5,0.6-2.3C57.3,43.6,56.7,43.6,56,43.6z"/>
<path d="M66.8,51.1c-0.1-0.1-0.1-0.2-0.2-0.3c-0.7,0.3-1.4,0.5-2.2,0.6c-0.2,0-0.4,0-0.7-0.1c-1-0.4-2.2-2.8-2.2-2.8
	c-0.6,1.7-0.2,3.6,1,5c-0.1,0.1-0.1,0.3-0.3,0.6c-0.5-0.3-1.2-0.5-1.8-0.5c0.3,0.3,0.7,0.5,1,0.8l0.5,0.4c-0.1,0.3-0.3,0.6-0.5,0.9
	c-0.2-0.2-0.4-0.3-0.6-0.5c-0.4-0.3-0.9-0.5-1.4-0.7c0.3,0.4,0.7,0.7,1,1.1c0.2,0.2,0.4,0.4,0.6,0.6c-0.2,0.3-0.4,0.5-0.7,0.8
	c-0.2-0.3-0.4-0.5-0.6-0.7c-0.4-0.5-0.9-0.9-1.5-1.2c0.3,0.6,0.6,1.1,0.9,1.6c0.2,0.3,0.3,0.6,0.5,1c-0.3,0.3-0.6,0.5-1,0.7
	c-0.1-0.4-0.3-0.8-0.5-1.2c-0.3-0.6-0.7-1.2-1.2-1.7c0.1,0.7,0.3,1.3,0.5,1.9c0.1,0.5,0.2,0.9,0.3,1.4c-0.5,0.2-0.9,0.3-1.4,0.3
	c-0.1-0.5-0.2-1-0.3-1.5c-0.2-0.7-0.5-1.4-1-2c0,0.8,0.1,1.4,0.1,2.1c0,0.5,0,1,0.1,1.4h0c-0.5,0-1,0-1.5-0.1c0-0.7,0-1.3-0.1-2
	c-0.1-0.8-0.3-1.7-0.7-2.4c-0.1,0.8-0.1,1.6-0.2,2.4c0,0.6-0.1,1.2-0.2,1.8c-0.6-0.1-1.1-0.2-1.6-0.3c0.2-2.1-0.1-4.2-0.9-4.9
	c-0.4-0.3-0.9-0.4-1.4-0.4c-2.7,0.2-5.2,1.3-7.1,3.3c-0.3,0.4-0.3,1,0.2,1.3c0.1,0,0.1,0.1,0.2,0.1c1.9,0.9,3.8,2,5.6,3.2
	c0.3,0.2,0.4,0.5,0.2,0.8c-0.1,0.2-0.3,0.3-0.5,0.3c0,0,0,0-0.1,0c-0.1,0-0.2,0-0.3-0.1c-1.7-1.1-3.2-2-4.5-2.6
	c-0.2-0.1-0.4,0-0.5,0.2c-0.1,0.1-0.1,0.3,0.1,0.5c1.6,1.9,4.8,3.6,6.5,3.6c0.2,0,0.4,0,0.6-0.1c0.8-0.4,1.5-2.1,1.8-4
	c0.5,0.1,1,0.2,1.6,0.3c-0.1,0.6-0.1,1.2-0.2,1.8c-0.1,0.8-0.2,1.6-0.3,2.4c0.5-0.7,0.9-1.4,1.1-2.3c0.2-0.6,0.3-1.2,0.4-1.8
	c0.5,0.1,1,0.1,1.5,0.1l0.1,0l0.1,1.6c0,0.7,0.1,1.4,0.1,2.1c0.4-0.6,0.6-1.4,0.7-2.1c0.1-0.6,0.2-1.1,0.2-1.7
	c0.6-0.1,1.1-0.2,1.6-0.4l0.3,1.3c0.1,0.6,0.3,1.3,0.5,1.9c0.2-0.7,0.3-1.3,0.3-2c0-0.5-0.1-1.1-0.2-1.6c0.4-0.2,0.9-0.5,1.3-0.8
	l0.6,1.1c0.3,0.5,0.6,1,0.9,1.6c0-0.6,0-1.3-0.2-1.9c-0.1-0.5-0.3-1-0.6-1.5c0.3-0.3,0.6-0.6,0.8-0.9l0.5,0.6c0.3,0.4,0.6,0.7,1,1.1
	c-0.1-0.5-0.3-1-0.5-1.4c-0.2-0.3-0.4-0.6-0.6-0.9c0.3-0.4,0.5-0.7,0.7-1c0.5,0.4,1,0.7,1.5,1c-0.1-0.4-0.4-0.8-0.6-1.1
	c-0.2-0.2-0.3-0.4-0.5-0.6c0.2-0.4,0.3-0.7,0.4-0.9C65,53.5,66.1,52.5,66.8,51.1z M47.7,56.9c-0.1,0.5-0.6,0.8-1.1,0.9
	c0,0-0.1,0-0.1,0c-0.7,0-1.3-0.6-1.3-1.3c0-0.6,0.5-1.2,1.1-1.3c0,0,0.1,0,0.1,0c0.7,0,1.3,0.6,1.3,1.3
	C47.8,56.7,47.8,56.8,47.7,56.9L47.7,56.9z"/>
<path d="M49.8,39.7c0.7,1.1,1.7,2,2.8,2.7c0.6,0.3,1.2,0.5,1.8,0.6c-0.1-0.1-0.2-0.3-0.3-0.4c-0.1-0.3-0.3-0.5-0.5-0.7
	c-1.1-0.4-2.1-1.2-2.8-2.2c-0.4-0.2-0.8-0.3-1.3-0.3C49.6,39.4,49.7,39.5,49.8,39.7z"/>
<path d="M24.8,61.5c0.1,0.2,0.3,0.3,0.5,0.3c1.2,0,3.9-1.8,5.8-4.3c0.2-0.3,0.4-0.5,0.6-0.8c0.1-0.6,0-1.3-0.1-1.9
	c-0.3-1.5-0.9-2.9-1.6-4.2c-0.3-0.6-0.4-1.2-0.4-1.8c-0.5,0.1-0.9,0.2-1.4,0.4c0,2.8,1,6.2-0.1,7.8C26.6,59.5,24.3,60.4,24.8,61.5z"
	/>
<path d="M74.4,61.2c-0.2-0.9-0.6-1.8-1.2-2.6c-0.8-1.2-2.1-2-3.5-2.2c-1-0.1-1.7-0.9-1.7-1.9c-0.1-0.7-0.3-1.5-0.6-2.1
	c-0.6,1.1-1.6,2-2.8,2.5c0.3,0.4,0.6,0.9,0.7,1.4c0.2,0.6-0.1,1.2-0.7,1.4c-0.2,0.1-0.4,0.1-0.6,0c0.1,0.4,0.2,0.7,0.3,1.1
	c0.1,0.6-0.3,1.2-0.9,1.3c-0.3,0-0.5,0-0.8-0.2c0.1,0.6,0.2,1.1,0.1,1.7c0,0.6-0.6,1.1-1.2,1c-0.4,0-0.7-0.2-0.9-0.5
	c-0.2-0.3-0.4-0.6-0.5-0.9l0,0c0,0.8-0.1,1.6-0.3,2.4c-0.1,0.5-0.6,0.8-1.1,0.8l0,0c-0.5,0-0.9-0.3-1.1-0.8c-0.1-0.5-0.2-1-0.3-1.4
	c0,0.1,0,0.1,0,0.2c-0.2,0.9-0.4,1.7-0.9,2.4c-0.3,0.5-1,0.7-1.5,0.4c-0.3-0.2-0.5-0.5-0.5-0.9c-0.1-0.6-0.1-1.2-0.1-1.7
	c-0.3,0.9-0.7,1.8-1.3,2.5c-0.4,0.5-1.1,0.6-1.6,0.2c-0.3-0.2-0.5-0.6-0.4-1c0-0.3,0.1-0.6,0.1-0.9c-0.3,0.7-0.8,1.2-1.5,1.5
	c-0.3,0.1-0.7,0.2-1.1,0.2c-2.1,0-5.5-1.9-7.4-4c-0.4-0.4-0.5-1.1-0.2-1.6c0.1-0.1,0.2-0.3,0.3-0.4c-0.5-0.3-0.8-0.8-0.9-1.3
	c-0.1-0.6,0-1.3,0.4-1.7c2.1-2.2,5-3.5,8-3.7c0.7,0,1.5,0.2,2.1,0.6c0.5,0.5,0.9,1.1,1.1,1.7l0,0c0.1-0.6,0.6-1.1,1.2-1
	c0.4,0,0.7,0.3,0.9,0.6c0.1,0.2,0.2,0.4,0.3,0.6c0.4-0.5,1.1-0.5,1.6,0c0,0,0.1,0.1,0.1,0.1l0,0c0.3-0.5,0.8-0.7,1.4-0.5
	c0.2-0.3,0.7-0.5,1.1-0.5c0.2-0.4,0.5-0.6,0.9-0.6c0.1-0.5,0.6-0.9,1.1-0.9h0c0,0,0.1,0,0.1,0c-0.6-1.4-0.6-2.9-0.1-4.3
	c0.1-0.4,0.5-0.7,1-0.8c0,0,0.1,0,0.1,0c0.1,0,0.1,0,0.2,0c-0.3-1.2-1.1-2.4-2.1-3.2c-0.1-0.1-0.3-0.2-0.4-0.2
	c0,0.9-0.3,1.9-0.8,2.7c-0.3,0.4-0.7,0.8-1.1,1.1C57.1,47.8,57,47.9,57,48c-0.1,0.5-0.3,1-0.6,1.4c-0.9,1.3-2.4,2-3.9,2.1
	c-0.7,0.1-1.4-0.4-1.6-1.1c-0.3-1.6-1.2-3-2.6-3.8c-1.1-0.6-2.3-0.9-3.5-0.9c-0.7,0-1.5,0.1-2.2,0.2l0,0c-0.6,0.4-1.5,0.2-1.8-0.4
	c-0.1-0.2-0.2-0.4-0.2-0.6c-0.2-1.8,0.5-3.6,1.9-4.7c-1.8-0.7-4.1-0.9-7,1.3c-1,0.8-1.8,1.7-2.5,2.8c0.9,0.5,1.8,1,2.6,1.7
	c0.9,0.8,2,1.4,3.1,1.8c0.9,0.2,1.9,0.3,2.8,0.3c0.5,0,1,0,1.6-0.1c0.3-0.1,0.5-0.1,0.8-0.1c0.6,0,1.2,0.3,1.6,0.8
	c0.4,0.5,0.5,1.2,0.3,1.8c-0.8,1.7-4.8,3.1-7.1,3.1l-0.1,0c-0.6,0-1.1-0.1-1.6-0.2c0,0.1,0.1,0.3,0.1,0.4c0,0,0,0,0,0.1
	c0.1,2.8-0.9,5.5-2.8,7.6l0,0c-0.1,0-0.1,0.1-0.2,0.1l-0.1,0.1c0,0-0.1,0.1-0.1,0.1c-0.1,0-0.1,0.1-0.2,0.1c0,0-0.1,0-0.1,0.1
	c-0.1,0-0.1,0.1-0.2,0.1c0,0-0.1,0-0.1,0c-0.1,0-0.1,0-0.2,0.1c0,0-0.1,0-0.1,0c-0.1,0-0.2,0-0.4,0c-0.1,0-0.2,0-0.3,0
	c0,0-0.1,0-0.1,0c-0.1,0-0.1,0-0.2-0.1c0,0-0.1,0-0.1-0.1c-0.1,0-0.1-0.1-0.2-0.1c0,0-0.1-0.1-0.1-0.1c-0.1,0-0.1-0.1-0.1-0.1
	c0,0-0.1-0.1-0.1-0.1c0-0.1-0.1-0.1-0.1-0.2c0,0,0-0.1-0.1-0.1c0,0,0-0.1-0.1-0.2c0,0,0-0.1,0-0.1c0,0,0-0.1,0-0.1c0,0,0-0.1,0-0.1
	c0,0,0-0.1,0-0.1c0,0,0-0.1,0-0.1c0-0.1,0-0.1,0-0.2l0-0.1c0-0.1,0-0.1,0-0.2l0-0.1c0-0.1,0-0.1,0-0.2l0-0.1c0-0.1,0-0.1,0-0.2l0,0
	c0,0,0-0.1,0-0.1c-1.8,1.9-4.2,3.5-5.7,3.5c-0.6,0-1.3-0.3-1.5-0.9c-0.7-1.3,0.4-2.3,1.4-3.2c0.8-0.7,1.5-1.5,2.1-2.4
	c0.5-0.7,0.3-2.7,0.1-4.3c-0.1-0.8-0.2-1.6-0.2-2.3c-0.5,0.3-0.9,0.7-1.2,1.1c-1,1.3-1.5,2.9-1.6,4.6c0,0.9-0.7,1.7-1.6,1.9
	c-1.5,0.3-2.7,1.2-3.4,2.5c0,0,0,0,0,0.1c-1.2,1.9-0.6,4.4,1.3,5.6c0.6,0.4,1.4,0.6,2.1,0.6c10.7,0.1,37.6,0,47.7,0
	c2.3,0,4.1-1.8,4.1-4.1C74.5,61.8,74.5,61.5,74.4,61.2z"/>
<path d="M36.5,52c0.7,0.2,1.5,0.4,2.3,0.4l0.1,0c2.5,0,6.9-1.9,5.9-3C44.6,49.2,44.3,49,44,49c-0.8,0.1-1.6,0.2-2.4,0.2
	c-1,0-2-0.1-3-0.3c-2.2-0.4-4.1-2.7-6-3.6c-0.3,0.6-0.5,1.2-0.7,1.9c-0.2,0.8-0.8,1.3-1.6,1.5c-0.1,0-0.3,0-0.4,0.1
	c0.2,0.5,0.5,1,0.8,1.5c0.9,1.3,1.5,2.7,1.8,4.3c0,0.1,0,0.1,0,0.2v0c0.1,1.6,0,3.1-0.3,4.7l0,0c0,0.1,0,0.1,0,0.2l0,0
	c0,0.1,0,0.1,0,0.2l0,0c0,0,0,0.1,0,0.1l0,0.1c0,0,0,0.1,0,0.1c0,0,0,0,0,0.1c0,0,0,0.1,0,0.1c0,0,0,0,0,0.1c0,0,0,0.1,0,0.1
	c0,0,0,0,0,0.1c0,0,0,0.1,0,0.1c0,0,0,0,0,0.1c0,0,0,0,0,0.1c0,0,0,0,0,0c0,0,0,0,0,0.1c0,0,0,0,0,0c0,0,0,0,0,0c0,0,0,0,0,0
	c0,0,0,0,0.1,0c0,0,0,0,0,0c0,0,0,0,0.1,0c0,0,0,0,0,0c0,0,0.1,0,0.1,0h0c0.1,0,0.1,0,0.2,0c0,0,0,0,0.1,0c0,0,0.1,0,0.1,0
	c0,0,0,0,0.1,0c0,0,0.1,0,0.1,0c0,0,0,0,0.1,0c0,0,0.1,0,0.1-0.1c0,0,0.1,0,0.1-0.1c0,0,0,0,0.1,0c0,0,0.1-0.1,0.1-0.1l0,0
	c1.6-1.8,2.5-4.2,2.5-6.6c-0.4-2-1.3-3.8-2.5-5.3c-0.3-0.4-1.5-1.5-1.5-1.5c0.7,0.2,1.4,0.5,1.9,1C35.1,49.2,36,50.5,36.5,52z"/>
</svg>
