<?xml version="1.0" encoding="utf-8"?>
<!-- Generator: Adobe Illustrator 23.0.3, SVG Export Plug-In . SVG Version: 6.00 Build 0)  -->
<svg version="1.1" id="Layer_1" xmlns="http://www.w3.org/2000/svg" xmlns:xlink="http://www.w3.org/1999/xlink" x="0px" y="0px"
	 viewBox="0 0 70 70" style="enable-background:new 0 0 70 70;" xml:space="preserve">
<style type="text/css">
	.st0{fill:#FFFFFF;}
</style>
<g>
	<path class="st0" d="M34.6,0.8C15.6,0.8,0.1,16.3,0.1,35.4C0.1,54.5,15.6,70,34.6,70c19.1,0,34.6-15.5,34.6-34.6
		C69.2,16.3,53.7,0.8,34.6,0.8z M34.7,67.4c-10.8,0-20.4-5.4-26.2-13.6c0.6-0.7,1.1-1.4,1.5-2.2c1.4,3.1,4.6,5.3,8.2,5.3
		c3.6,0,6.8-2.2,8.2-5.3c1.4,3.1,4.6,5.3,8.2,5.3c3.6,0,6.8-2.2,8.2-5.3c1.4,3.1,4.6,5.3,8.2,5.3s6.8-2.2,8.2-5.3
		c0.4,0.8,0.9,1.6,1.5,2.2C55.1,62.1,45.6,67.4,34.7,67.4z M61.9,52.4c-1-1.3-1.6-2.9-1.6-4.6c0-0.5-0.4-0.9-0.9-0.9
		s-0.9,0.4-0.9,0.9c0,4.1-3.3,7.4-7.4,7.4s-7.4-3.3-7.4-7.4c0-0.5-0.4-0.9-0.9-0.9s-0.9,0.4-0.9,0.9c0,4.1-3.3,7.4-7.4,7.4
		s-7.4-3.3-7.4-7.4c0-0.5-0.4-0.9-0.9-0.9c-0.5,0-0.9,0.4-0.9,0.9c0,4.1-3.3,7.4-7.4,7.4c-4.1,0-7.4-3.3-7.4-7.4
		c0-0.5-0.4-0.9-0.9-0.9c-0.5,0-0.9,0.4-0.9,0.9c0,1.7-0.6,3.3-1.6,4.6c-1.6-2.6-2.9-5.5-3.8-8.6c2.8-0.6,5-2.5,6.2-5
		c1.4,3.1,4.6,5.3,8.2,5.3c3.6,0,6.8-2.2,8.2-5.3c1.4,3.1,4.6,5.3,8.2,5.3c3.6,0,6.8-2.2,8.2-5.3c1.4,3.1,4.6,5.3,8.2,5.3
		s6.8-2.2,8.2-5.3c1.2,2.5,3.5,4.4,6.2,5C64.8,46.8,63.6,49.7,61.9,52.4z M66.8,35.4c0,2.3-0.2,4.5-0.7,6.7
		c-3.3-0.7-5.8-3.7-5.8-7.2c0-0.5-0.4-0.9-0.9-0.9s-0.9,0.4-0.9,0.9c0,4.1-3.3,7.4-7.4,7.4s-7.4-3.3-7.4-7.4c0-0.5-0.4-0.9-0.9-0.9
		s-0.9,0.4-0.9,0.9c0,4.1-3.3,7.4-7.4,7.4s-7.4-3.3-7.4-7.4c0-0.5-0.4-0.9-0.9-0.9c-0.5,0-0.9,0.4-0.9,0.9c0,4.1-3.3,7.4-7.4,7.4
		c-4.1,0-7.4-3.3-7.4-7.4c0-0.5-0.4-0.9-0.9-0.9c-0.5,0-0.9,0.4-0.9,0.9c0,3.5-2.5,6.5-5.8,7.2c-0.5-2.2-0.7-4.4-0.7-6.7
		c0-1.5,0.1-2.9,0.3-4.4c3.1-0.4,5.7-2.4,7-5.2c1.4,3.1,4.6,5.3,8.2,5.3c3.6,0,6.8-2.2,8.2-5.3c1.4,3.1,4.6,5.3,8.2,5.3
		s6.8-2.2,8.2-5.3c1.4,3.1,4.6,5.3,8.2,5.3c3.6,0,6.8-2.2,8.2-5.3c1.3,2.8,3.9,4.8,7,5.2C66.7,32.4,66.8,33.9,66.8,35.4z M60.3,22
		c0-0.5-0.4-0.9-0.9-0.9s-0.9,0.4-0.9,0.9c0,4.1-3.3,7.4-7.4,7.4s-7.4-3.3-7.4-7.4c0-0.5-0.4-0.9-0.9-0.9s-0.9,0.4-0.9,0.9
		c0,4.1-3.3,7.4-7.4,7.4s-7.4-3.3-7.4-7.4c0-0.5-0.4-0.9-0.9-0.9c-0.5,0-0.9,0.4-0.9,0.9c0,4.1-3.3,7.4-7.4,7.4
		c-4.1,0-7.4-3.3-7.4-7.4c0-0.5-0.4-0.9-0.9-0.9c-0.5,0-0.9,0.4-0.9,0.9c0,3.6-2.5,6.5-5.9,7.2C6.2,14.5,19.1,3.4,34.7,3.4
		s28.6,11.1,31.4,25.9C62.8,28.5,60.3,25.6,60.3,22z"/>
</g>
</svg>
