<svg id="Layer_1" data-name="Layer 1" xmlns="http://www.w3.org/2000/svg" viewBox="0 0 69.1 69.2"><title>water-black</title><path d="M34.6.8A34.6,34.6,0,1,0,69.2,35.4,34.59,34.59,0,0,0,34.6.8Zm.1,66.6A32.1,32.1,0,0,1,8.5,53.8,10.71,10.71,0,0,0,10,51.6a9,9,0,0,0,16.4,0,9,9,0,0,0,16.4,0,9,9,0,0,0,16.4,0,8.55,8.55,0,0,0,1.5,2.2A31.08,31.08,0,0,1,34.7,67.4Zm27.2-15a7.55,7.55,0,0,1-1.6-4.6.9.9,0,1,0-1.8,0,7.4,7.4,0,0,1-14.8,0,.9.9,0,1,0-1.8,0,7.4,7.4,0,0,1-14.8,0,.9.9,0,0,0-1.8,0,7.4,7.4,0,0,1-14.8,0,.9.9,0,0,0-1.8,0,7.55,7.55,0,0,1-1.6,4.6,35.13,35.13,0,0,1-3.8-8.6,9,9,0,0,0,6.2-5,9,9,0,0,0,16.4,0,9,9,0,0,0,16.4,0,9,9,0,0,0,16.4,0,9.19,9.19,0,0,0,6.2,5A17.48,17.48,0,0,1,61.9,52.4Zm4.9-17a29.89,29.89,0,0,1-.7,6.7,7.4,7.4,0,0,1-5.8-7.2.9.9,0,0,0-1.8,0,7.4,7.4,0,0,1-14.8,0,.9.9,0,1,0-1.8,0,7.4,7.4,0,0,1-14.8,0,.9.9,0,1,0-1.8,0,7.4,7.4,0,0,1-14.8,0,.9.9,0,0,0-1.8,0,7.4,7.4,0,0,1-5.8,7.2,29.89,29.89,0,0,1-.7-6.7A32.53,32.53,0,0,1,2.5,31a9,9,0,0,0,7-5.2,9,9,0,0,0,16.4,0,9,9,0,0,0,16.4,0,9,9,0,0,0,16.4,0,9,9,0,0,0,7,5.2A7.08,7.08,0,0,1,66.8,35.4ZM60.3,22a.9.9,0,1,0-1.8,0,7.4,7.4,0,1,1-14.8,0,.9.9,0,0,0-1.8,0,7.4,7.4,0,0,1-14.8,0,.9.9,0,1,0-1.8,0,7.4,7.4,0,0,1-14.8,0,.9.9,0,1,0-1.8,0,7.3,7.3,0,0,1-5.9,7.2A33,33,0,0,1,34.7,3.4,31.9,31.9,0,0,1,66.1,29.3,7.51,7.51,0,0,1,60.3,22Z" transform="translate(-0.1 -0.8)"/></svg>